<svg width="19" height="20" viewBox="0 0 19 20" fill="none" xmlns="http://www.w3.org/2000/svg">
<path d="M12.4483 12.2749C12.3346 12.2749 12.2186 12.2491 12.1102 12.1953L9.07748 10.6789C8.82046 10.55 8.65821 10.2877 8.65821 10.0004V4.69319C8.65821 4.27468 8.99787 3.93502 9.41638 3.93502C9.83489 3.93502 10.1746 4.27468 10.1746 4.69319V9.53182L12.788 10.8389C13.1625 11.0262 13.3141 11.4818 13.1269 11.8564C12.9942 12.1217 12.7265 12.2749 12.4483 12.2749ZM9.41638 19.0984C4.39958 19.0984 0.318359 15.0172 0.318359 10.0004C0.318359 4.98356 4.39958 0.902344 9.41638 0.902344C14.4332 0.902344 18.5144 4.98356 18.5144 10.0004C18.5144 15.0172 14.4332 19.0984 9.41638 19.0984ZM9.41638 2.41868C5.23584 2.41868 1.8347 5.81982 1.8347 10.0004C1.8347 14.1809 5.23584 17.5821 9.41638 17.5821C13.5969 17.5821 16.9981 14.1809 16.9981 10.0004C16.9981 5.81982 13.5969 2.41868 9.41638 2.41868Z" fill="black"/>
</svg>
