<svg width="21" height="20" viewBox="0 0 21 20" fill="none" xmlns="http://www.w3.org/2000/svg">
<path d="M11.0037 5.68266C12.1589 5.9719 13.0033 7.01676 13.0033 8.26237H11.6702C11.6702 7.52844 11.0705 6.92827 10.3372 6.92827C9.60379 6.92827 9.00408 7.52844 9.00408 8.26237C9.00408 8.9963 9.60379 9.59647 10.3372 9.59647C11.8039 9.59647 13.0033 10.7968 13.0033 12.2647C13.0033 13.7325 12.1589 14.5551 11.0037 14.8444V15.6H9.67062V14.8444C8.51545 14.5551 7.67099 13.5103 7.67099 12.2647H9.00408C9.00408 12.9986 9.60379 13.5988 10.3372 13.5988C11.0705 13.5988 11.6702 12.9986 11.6702 12.2647C11.6702 11.5307 11.0705 10.9306 10.3372 10.9306C8.87041 10.9306 7.67099 9.73024 7.67099 8.26237C7.67099 6.7945 8.51545 5.97194 9.67062 5.68266V4.92703H11.0037V5.68266ZM18.3583 4.08192L19.2696 3.10394L15.3815 2.19194L16.5366 6.01614L17.4254 5.05986C19.8251 8.48361 19.4692 13.153 16.4481 16.1547C14.8043 17.7997 12.6484 18.689 10.3155 18.689C7.98258 18.689 5.82764 17.777 4.18284 16.1547C2.53906 14.5097 1.65042 12.3305 1.65042 10.0174C1.65042 7.70538 2.56172 5.52613 4.18284 3.88007C6.20504 1.85633 9.07082 0.966839 11.8707 1.47847L12.1155 0.166957C8.87121 -0.43321 5.56116 0.611657 3.25092 2.92365C1.36239 4.81363 0.318359 7.32641 0.318359 9.99461C0.318359 12.6628 1.36243 15.1756 3.25092 17.0656C5.13942 18.9555 7.65033 20.0004 10.3165 20.0004C12.9827 20.0004 15.4935 18.9555 17.3821 17.0656C20.9143 13.5306 21.2929 7.99346 18.3376 4.0354L18.3583 4.08192Z" fill="black"/>
</svg>
