<svg width="20" height="20" viewBox="0 0 20 20" fill="none" xmlns="http://www.w3.org/2000/svg">
<path d="M9.90036 0.418335C4.60487 0.418335 0.318359 4.70484 0.318359 10.0003C0.318359 15.2958 4.60487 19.5823 9.90036 19.5823C15.1959 19.5823 19.4824 15.2958 19.4824 10.0003C19.4824 4.70484 15.1959 0.418335 9.90036 0.418335ZM9.90036 17.5653C5.76515 17.5653 2.33537 14.1866 2.33537 10.0003C2.33537 5.81405 5.76515 2.43534 9.90036 2.43534C14.0356 2.43534 17.4654 5.81405 17.4654 10.0003C17.4654 14.1866 14.0356 17.5653 9.90036 17.5653Z" fill="black"/>
<path d="M9.90076 7.42981H10.3547C10.5561 7.42981 10.7074 7.58111 10.7074 7.78252C10.7074 8.3376 11.1613 8.7915 11.7164 8.7915C12.2714 8.7915 12.7253 8.3376 12.7253 7.78252C12.7253 6.67331 11.9688 5.76551 10.9097 5.51302V5.3116C10.9097 4.75651 10.4558 4.30261 9.90076 4.30261C9.34567 4.30261 8.89177 4.75651 8.89177 5.3116V5.66431C7.83267 6.0681 7.07617 7.07612 7.07617 8.28652C7.07617 9.84963 8.33668 11.1111 9.90076 11.1111C10.3547 11.1111 10.7074 11.4638 10.7074 11.9177C10.7074 12.3716 10.3547 12.7243 9.90076 12.7243H9.44686C9.24544 12.7243 9.09415 12.573 9.09415 12.3716V12.3215C9.09415 11.7664 8.64025 11.3125 8.08516 11.3125C7.53007 11.3125 7.07617 11.7664 7.07617 12.3215V12.3716C7.07617 13.4808 7.83267 14.3886 8.89177 14.6411V14.8425C8.89177 15.3976 9.34567 15.8515 9.90076 15.8515C10.4558 15.8515 10.9097 15.3976 10.9097 14.8425V14.4898C11.9688 14.086 12.7253 13.078 12.7253 11.8676C12.7253 10.3045 11.4648 9.04303 9.90076 9.04303C9.44686 9.04303 9.09415 8.69032 9.09415 8.23642C9.09415 7.78252 9.44686 7.42981 9.90076 7.42981Z" fill="black"/>
</svg>
