<svg width="21" height="16" viewBox="0 0 21 16" fill="none" xmlns="http://www.w3.org/2000/svg">
<path d="M16.3184 1.21081V0.0864864C16.3184 0.0432432 16.2961 0 16.2295 0H14.3406C14.2961 0 14.2517 0.0216215 14.2517 0.0864864V1.21081H6.3628V0.0864864C6.3628 0.0432432 6.34058 0 6.27391 0H4.38503C4.34058 0 4.29614 0.0216215 4.29614 0.0864864V1.21081H0.829471C0.540582 1.21081 0.318359 1.42703 0.318359 1.70811V15.5027C0.318359 15.7838 0.540582 16 0.829471 16H19.8072C20.0961 16 20.3184 15.7838 20.3184 15.5027V1.68649C20.3184 1.40541 20.0961 1.18919 19.8072 1.18919L16.3184 1.21081ZM4.31836 3.17838V3.95676C4.31836 4 4.34058 4.04324 4.40725 4.04324H6.29614C6.34058 4.04324 6.38503 4.02162 6.38503 3.95676V3.17838H14.2961V3.95676C14.2961 4 14.3184 4.04324 14.385 4.04324H16.2739C16.3184 4.04324 16.3628 4.02162 16.3628 3.95676V3.17838H18.2517V13.9892H2.27391V3.17838H4.31836ZM6.29614 8.02162H4.40725C4.3628 8.02162 4.31836 8 4.31836 7.93514V6.0973C4.31836 6.05405 4.34058 6.01081 4.40725 6.01081H6.29614C6.34058 6.01081 6.38503 6.03243 6.38503 6.0973V7.93514C6.3628 7.97838 6.34058 8.02162 6.29614 8.02162Z" fill="black"/>
</svg>
