<svg width="20" height="20" viewBox="0 0 20 20" fill="none" xmlns="http://www.w3.org/2000/svg">
<path d="M9.92252 0.153334C9.83383 0.166006 9.75098 0.204993 9.68469 0.265255L5.25684 4.28739H2.59874C2.00694 4.28311 1.46513 4.44563 1.04584 4.73507C0.626553 5.02451 0.31835 5.47065 0.318359 5.99417L0.325354 18.2005C0.326606 18.708 0.627699 19.1396 1.03185 19.4176C1.436 19.6957 1.95427 19.8513 2.52179 19.8513H15.9172C16.5791 19.8513 17.1902 19.4237 17.4282 18.7881C17.8032 18.7578 18.1685 18.6528 18.4774 18.4383C18.8559 18.1755 19.121 17.7122 19.121 17.1722V5.99417C19.121 5.56047 18.9935 5.13652 18.7153 4.81202C18.437 4.48751 18.0013 4.28884 17.5121 4.28739L15.3087 4.2804L14.0846 1.77618C14.0452 1.69454 13.982 1.62675 13.9033 1.58179C13.8247 1.53683 13.7342 1.5168 13.6439 1.52436C13.5852 1.52949 13.5282 1.54613 13.476 1.57332L12.063 2.3008L10.3282 0.307225C10.2792 0.249286 10.2162 0.204766 10.1453 0.177846C10.0743 0.150926 9.99764 0.142492 9.92252 0.153334ZM9.9505 1.23756L11.2446 2.7275L4.45941 6.22501L9.9505 1.23756ZM13.483 2.58061L15.3576 6.41388L6.04028 6.42087L13.483 2.58061ZM15.7494 5.17576L17.5121 5.18275C17.78 5.18365 17.9245 5.26871 18.0367 5.3996C18.149 5.5305 18.2256 5.73345 18.2256 5.99417V10.0443H14.5322C13.3876 10.0443 12.4547 10.9772 12.4547 12.1218C12.4547 13.2664 13.3876 14.2063 14.5322 14.2063H18.2256V17.1722C18.2256 17.4604 18.1369 17.5857 17.9668 17.7038C17.8626 17.7762 17.7088 17.8313 17.5331 17.8647V15.2766C17.5339 15.2172 17.523 15.1583 17.5009 15.1033C17.4787 15.0482 17.4459 14.9981 17.4042 14.9559C17.3626 14.9136 17.3129 14.8801 17.2582 14.8572C17.2035 14.8343 17.1447 14.8225 17.0854 14.8225C17.0261 14.8225 16.9674 14.8343 16.9126 14.8572C16.8579 14.8801 16.8083 14.9136 16.7666 14.9559C16.7249 14.9981 16.6921 15.0482 16.67 15.1033C16.6479 15.1583 16.6369 15.2172 16.6377 15.2766V18.2005C16.6377 18.6684 16.2758 18.9559 15.9172 18.9559H2.52179C2.11947 18.9559 1.76378 18.8402 1.53549 18.6831C1.3072 18.5261 1.22111 18.3528 1.22072 18.1935L1.21372 7.05742C1.54258 7.22809 1.93032 7.3163 2.34691 7.31623L16.0991 7.30924C16.282 7.30921 16.3732 7.37394 16.4699 7.5051C16.5665 7.63626 16.6377 7.84861 16.6377 8.0647V8.77819C16.6369 8.83751 16.6479 8.89641 16.67 8.95146C16.6921 9.00651 16.7249 9.05662 16.7666 9.09887C16.8083 9.14112 16.8579 9.17466 16.9126 9.19756C16.9674 9.22046 17.0261 9.23225 17.0854 9.23225C17.1447 9.23225 17.2035 9.22046 17.2582 9.19756C17.3129 9.17466 17.3626 9.14112 17.4042 9.09887C17.4459 9.05662 17.4787 9.00651 17.5009 8.95146C17.523 8.89641 17.5339 8.83751 17.5331 8.77819V8.0647C17.5331 7.67917 17.4255 7.29265 17.1903 6.97348C17.0039 6.72033 16.7127 6.52224 16.3719 6.44885L15.7494 5.17576ZM2.59174 5.18275C2.59407 5.18277 2.5964 5.18277 2.59874 5.18275H4.27054L2.91351 6.42087H2.34691C2.02053 6.42092 1.72732 6.33242 1.53549 6.21102C1.34366 6.08962 1.26259 5.94964 1.2487 5.84028C1.24871 5.83795 1.24871 5.83562 1.2487 5.83329C1.29479 5.71191 1.39027 5.58428 1.55648 5.46955C1.79922 5.30198 2.16904 5.17969 2.59174 5.18275ZM14.5322 10.9397H18.2256V13.311H14.5322C13.8682 13.311 13.3501 12.7859 13.3501 12.1218C13.3501 11.4577 13.8682 10.9397 14.5322 10.9397ZM14.833 11.4993C14.4848 11.4993 14.2035 11.7806 14.2035 12.1288C14.2035 12.477 14.4848 12.7584 14.833 12.7584C15.1812 12.7584 15.4696 12.477 15.4696 12.1288C15.4696 11.7806 15.1812 11.4993 14.833 11.4993Z" fill="black"/>
</svg>
