<svg width="31" height="32" viewBox="0 0 31 32" fill="none" xmlns="http://www.w3.org/2000/svg">
<path d="M25.8562 19.8846V22.4736C25.855 23.5032 25.4455 24.4903 24.7175 25.2183C23.9895 25.9464 23.0023 26.3559 21.9727 26.357H9.02796C7.99836 26.3559 7.01125 25.9464 6.2832 25.2183C5.55516 24.4903 5.14566 23.5032 5.14453 22.4736V19.8846C5.14453 19.5413 5.28091 19.212 5.52368 18.9693C5.76644 18.7265 6.09569 18.5901 6.43901 18.5901C6.78233 18.5901 7.11158 18.7265 7.35434 18.9693C7.5971 19.212 7.73349 19.5413 7.73349 19.8846V22.4736C7.73383 22.8168 7.87032 23.1458 8.11301 23.3885C8.3557 23.6312 8.68475 23.7677 9.02796 23.768H21.9727C22.316 23.7677 22.645 23.6312 22.8877 23.3885C23.1304 23.1458 23.2669 22.8168 23.2672 22.4736V19.8846C23.2672 19.5413 23.4036 19.212 23.6464 18.9693C23.8891 18.7265 24.2184 18.5901 24.5617 18.5901C24.905 18.5901 25.2343 18.7265 25.477 18.9693C25.7198 19.212 25.8562 19.5413 25.8562 19.8846ZM12.5049 11.5426L14.2059 9.93891V19.8846C14.2059 20.2279 14.3423 20.5572 14.585 20.7999C14.8278 21.0427 15.157 21.1791 15.5004 21.1791C15.8437 21.1791 16.1729 21.0427 16.4157 20.7999C16.6584 20.5572 16.7948 20.2279 16.7948 19.8846V9.93891L18.4958 11.5426C18.7462 11.7741 19.078 11.8974 19.4189 11.8858C19.7598 11.8741 20.0823 11.7283 20.3163 11.4801C20.5504 11.2319 20.6769 10.9014 20.6686 10.5604C20.6603 10.2194 20.5177 9.89544 20.2718 9.659L16.3884 5.99805C16.3284 5.9519 16.2644 5.91135 16.197 5.87692C16.1312 5.82545 16.0605 5.78067 15.9858 5.74324C15.6745 5.61684 15.3261 5.61684 15.0148 5.74324C14.9401 5.78067 14.8694 5.82545 14.8036 5.87692C14.7362 5.91135 14.6722 5.9519 14.6122 5.99805L10.7288 9.659C10.4816 9.89514 10.3379 10.2195 10.3289 10.5612C10.32 10.903 10.4466 11.2344 10.6812 11.4831C10.9157 11.7318 11.2391 11.8777 11.5808 11.8888C11.9225 11.8999 12.2547 11.7755 12.5049 11.5426Z" fill="#3B82F6"/>
</svg>
