<svg width="17" height="13" viewBox="0 0 17 13" fill="none" xmlns="http://www.w3.org/2000/svg">
<path d="M10.0931 2.33654C10.1052 2.29592 10.1035 2.2524 10.0881 2.2129C10.0727 2.17339 10.0445 2.14018 10.0081 2.11854C9.97156 2.09723 9.9289 2.08899 9.88709 2.09517C9.84529 2.10135 9.80683 2.12158 9.77806 2.15253L6.79006 5.33953C6.76524 5.36623 6.74871 5.39958 6.7425 5.4355C6.73628 5.47142 6.74065 5.50838 6.75506 5.54186C6.76947 5.57535 6.79331 5.60392 6.82367 5.62411C6.85403 5.64429 6.8896 5.65521 6.92606 5.65553H8.16706L7.49406 7.85053C7.48187 7.89115 7.48362 7.93467 7.49902 7.97417C7.51442 8.01368 7.5426 8.04689 7.57906 8.06854C7.65406 8.11154 7.74906 8.09854 7.80906 8.03453L10.6891 4.84754C10.7139 4.82077 10.7305 4.78734 10.7367 4.75133C10.7428 4.71531 10.7384 4.67828 10.7239 4.64475C10.7093 4.61123 10.6853 4.58266 10.6548 4.56256C10.6243 4.54245 10.5886 4.53167 10.5521 4.53154H9.31106L10.0931 2.33654Z" fill="#3B82F6"/>
<path d="M5.55823 0.0931705C5.0688 0.0929309 4.59006 0.23636 4.18139 0.50567C3.77271 0.774981 3.45207 1.15833 3.25923 1.60817L2.46723 3.45617C2.3928 3.63184 2.25802 3.77513 2.08723 3.86017C1.58723 4.11017 1.23223 4.57517 1.12223 5.12217L0.789234 6.80117C0.756815 6.96249 0.740402 7.12662 0.740234 7.29117V7.70417C0.740234 8.51817 1.13023 9.24717 1.74023 9.70117V11.5932C1.74023 11.7258 1.79291 11.853 1.88668 11.9467C1.98045 12.0405 2.10763 12.0932 2.24023 12.0932H4.24023C4.37284 12.0932 4.50002 12.0405 4.59379 11.9467C4.68756 11.853 4.74023 11.7258 4.74023 11.5932V10.2552C6.03223 10.3032 7.48523 10.3432 8.74023 10.3432C9.99523 10.3432 11.4482 10.3032 12.7402 10.2552V11.5932C12.7402 11.7258 12.7929 11.853 12.8867 11.9467C12.9804 12.0405 13.1076 12.0932 13.2402 12.0932H15.2402C15.3728 12.0932 15.5 12.0405 15.5938 11.9467C15.6876 11.853 15.7402 11.7258 15.7402 11.5932V9.70117C16.3502 9.24717 16.7402 8.51817 16.7402 7.70417V7.29117C16.7402 7.12584 16.7239 6.9625 16.6912 6.80117L16.3562 5.12117C16.3026 4.85128 16.1878 4.59728 16.0207 4.37867C15.8536 4.16007 15.6386 3.98269 15.3922 3.86017C15.2211 3.77532 15.0859 3.63201 15.0112 3.45617L14.2192 1.60817C14.0264 1.15833 13.7058 0.774981 13.2971 0.50567C12.8884 0.23636 12.4097 0.0929309 11.9202 0.0931705H5.55923H5.55823ZM4.17923 2.00317C4.29483 1.73298 4.48724 1.5027 4.73257 1.34092C4.97791 1.17914 5.26536 1.09299 5.55923 1.09317H11.9212C12.2149 1.09319 12.5022 1.17943 12.7473 1.3412C12.9925 1.50297 13.1847 1.73314 13.3002 2.00317L14.0922 3.85017C14.2602 4.24323 14.5626 4.56368 14.9452 4.75417C15.1672 4.86617 15.3262 5.07417 15.3752 5.31817L15.7112 6.99717C15.7312 7.0945 15.7409 7.1925 15.7402 7.29117V7.70417C15.7417 8.08522 15.5962 8.45216 15.3339 8.72859C15.0716 9.00502 14.7128 9.16964 14.3322 9.18817C12.7772 9.25817 10.5462 9.34317 8.74023 9.34317C6.93423 9.34317 4.70323 9.25917 3.14823 9.18817C2.76746 9.16989 2.40842 9.00537 2.14594 8.72892C1.88345 8.45246 1.73777 8.08538 1.73923 7.70417V7.29117C1.73923 7.1925 1.74923 7.0945 1.76923 6.99717L2.10423 5.31717C2.12787 5.19661 2.17895 5.08311 2.25352 4.98548C2.32809 4.88785 2.42414 4.8087 2.53423 4.75417C2.91723 4.56417 3.21923 4.24317 3.38723 3.85017L4.17923 2.00317Z" fill="#3B82F6"/>
</svg>
