<svg width="25" height="25" viewBox="0 0 25 25" fill="none" xmlns="http://www.w3.org/2000/svg">
<rect x="0.5" y="0.5" width="24" height="24" rx="12" fill="#0D0D0D"/>
<path d="M18.86 6.13973C18.2544 5.53414 17.2726 5.53416 16.667 6.13973L12.5003 10.3064L8.33369 6.13973C7.72812 5.53416 6.7463 5.53414 6.14071 6.13973C5.53512 6.74532 5.53514 7.72713 6.14071 8.3327L10.3074 12.4994L6.14071 16.666C5.53514 17.2716 5.53512 18.2534 6.14071 18.859C6.7463 19.4646 7.72812 19.4646 8.33368 18.859L12.5003 14.6923L16.667 18.859C17.2726 19.4646 18.2544 19.4646 18.86 18.859C19.4655 18.2534 19.4655 17.2716 18.86 16.666L14.6933 12.4994L18.86 8.33272C19.4655 7.72715 19.4655 6.74532 18.86 6.13973Z" fill="white"/>
</svg>
