<svg width="33" height="33" viewBox="0 0 33 33" fill="none" xmlns="http://www.w3.org/2000/svg">
<g clip-path="url(#clip0_681_621)">
<path fill-rule="evenodd" clip-rule="evenodd" d="M10.1357 0.5C9.42753 0.5 8.85772 1.07028 8.85772 1.77612V6.12861C8.85772 6.83682 9.42705 7.4071 10.1357 7.4071C10.8416 7.4071 11.4119 6.83682 11.4119 6.12861V4.64464C11.9993 5.05891 12.3479 5.72955 12.3479 6.44823C12.3479 7.66965 11.3572 8.66039 10.1357 8.66039C8.91194 8.66039 7.9212 7.66965 7.9212 6.44823V2.79206H6.35543C5.4836 2.79206 4.6541 3.01228 4.00439 3.52786C3.35563 4.04535 2.94421 4.84821 2.85527 5.76475L1.57915 25.9101C1.5197 26.8366 1.72755 27.7284 2.27785 28.4043C2.82768 29.0811 3.69713 29.5044 4.66028 29.5044H20.3518C20.3418 29.3979 20.3366 29.2913 20.3366 29.1872V27.589H4.8786C4.4082 27.589 4.12092 27.4254 3.90498 27.1605C3.68952 26.8979 3.57537 26.4989 3.60248 25.9919L4.41534 10.2756H28.2905L28.8974 22.0051L30.966 23.3707L29.8487 5.76475C29.7617 4.84821 29.3507 4.04535 28.7015 3.52786C28.0503 3.01228 27.2208 2.79206 26.3485 2.79206H23.8463V1.77612C23.8463 1.07028 23.2769 0.5 22.5711 0.5C21.8619 0.5 21.2926 1.07028 21.2926 1.77612V6.12861C21.2926 6.83682 21.8619 7.4071 22.5711 7.4071C23.2769 7.4071 23.8463 6.83682 23.8463 6.12861V4.64464C24.4337 5.05891 24.7828 5.72955 24.7828 6.44823C24.7828 7.66965 23.7916 8.66039 22.5706 8.66039C21.3492 8.66039 20.358 7.66965 20.358 6.44823V2.79206H11.4119V1.77612C11.4119 1.0698 10.8416 0.5 10.1357 0.5Z" fill="#3B82F6"/>
<path fill-rule="evenodd" clip-rule="evenodd" d="M7.76331 13.5332H10.9391C11.4047 13.5332 11.7786 13.9075 11.7786 14.3727V16.8502C11.7786 17.3159 11.4043 17.6897 10.9391 17.6897H7.76331C7.29767 17.6897 6.92383 17.3154 6.92383 16.8502V14.3727C6.92383 13.9075 7.29767 13.5332 7.76331 13.5332Z" fill="#3B82F6"/>
<path fill-rule="evenodd" clip-rule="evenodd" d="M14.7662 13.5332H17.942C18.4077 13.5332 18.7815 13.9075 18.7815 14.3727V16.8502C18.7815 17.3159 18.4072 17.6897 17.942 17.6897H14.7662C14.3006 17.6897 13.9268 17.3154 13.9268 16.8502V14.3727C13.9268 13.9075 14.3006 13.5332 14.7662 13.5332Z" fill="#3B82F6"/>
<path fill-rule="evenodd" clip-rule="evenodd" d="M21.7692 13.5332H24.945C25.4106 13.5332 25.7844 13.9075 25.7844 14.3727V16.8502C25.7844 17.3159 25.4101 17.6897 24.945 17.6897H21.7692C21.3035 17.6897 20.9297 17.3154 20.9297 16.8502V14.3727C20.9292 13.9075 21.3035 13.5332 21.7692 13.5332Z" fill="#3B82F6"/>
<path fill-rule="evenodd" clip-rule="evenodd" d="M7.76331 20.1748H10.9391C11.4047 20.1748 11.7786 20.551 11.7786 21.0171V23.4918C11.7786 23.958 11.4043 24.3342 10.9391 24.3342H7.76331C7.29767 24.3342 6.92383 23.958 6.92383 23.4918V21.0171C6.92383 20.551 7.29767 20.1748 7.76331 20.1748Z" fill="#3B82F6"/>
<path fill-rule="evenodd" clip-rule="evenodd" d="M14.7662 20.1748H17.942C18.4077 20.1748 18.7815 20.551 18.7815 21.0171V23.4918C18.7815 23.958 18.4072 24.3342 17.942 24.3342H14.7662C14.3006 24.3342 13.9268 23.958 13.9268 23.4918V21.0171C13.9268 20.551 14.3006 20.1748 14.7662 20.1748Z" fill="#3B82F6"/>
<path d="M21.8333 21.6687L21.8262 29.185C21.8262 30.317 22.6633 30.8797 23.3444 30.3793L25.2398 28.9772L26.7461 31.8429C27.0453 32.4131 27.6797 32.6605 28.1706 32.3927L29.2831 31.7882C29.7706 31.5204 29.9242 30.8497 29.6251 30.2795L28.1216 27.4109L30.5963 26.5491C31.2032 26.3379 31.129 25.3177 30.1925 24.6413L23.9793 20.5414C22.9853 19.8879 21.8357 20.3431 21.8333 21.6687Z" fill="#3B82F6"/>
</g>
<defs>
<clipPath id="clip0_681_621">
<rect width="32" height="32" fill="white" transform="translate(0.27832 0.5)"/>
</clipPath>
</defs>
</svg>
