<svg width="28" height="28" viewBox="0 0 28 28" fill="none" xmlns="http://www.w3.org/2000/svg">
<path d="M13.9023 1.22949C14.2175 1.22949 14.5203 1.35527 14.7432 1.57812C14.9658 1.8009 15.0908 2.103 15.0908 2.41797V3.29199C17.1087 3.58153 18.9587 4.58131 20.3057 6.11523C21.6815 7.68208 22.4386 9.69708 22.4336 11.7822V15.625C22.5305 16.9028 22.8804 18.1486 23.4629 19.29C24.0002 20.1199 24.6459 20.8743 25.3838 21.5322H25.3848C25.4835 21.6191 25.5628 21.7259 25.6172 21.8457C25.6715 21.9655 25.7 22.096 25.7002 22.2275V23.2861C25.7002 23.5321 25.6017 23.7684 25.4277 23.9424C25.2539 24.1161 25.0182 24.2138 24.7725 24.2139H3.14941C2.90367 24.2138 2.668 24.1161 2.49414 23.9424C2.32018 23.7684 2.22172 23.5321 2.22168 23.2861V22.2275C2.22192 22.096 2.25036 21.9655 2.30469 21.8457C2.34549 21.7558 2.40021 21.6729 2.4668 21.6006L2.53711 21.5322C3.2644 20.872 3.89982 20.1174 4.42773 19.2891C5.01169 18.1444 5.36231 16.8948 5.45801 15.6133V11.7822C5.45401 9.71282 6.19974 7.71202 7.55762 6.15039C8.88688 4.6217 10.7144 3.61627 12.7139 3.30859V2.41797C12.7139 2.1029 12.8397 1.80092 13.0625 1.57812C13.2853 1.35534 13.5873 1.22957 13.9023 1.22949ZM7.32129 15.6338L7.1709 15.625L7.32031 15.6338C7.22369 17.2467 6.77991 18.8195 6.01953 20.2451L6.01465 20.2549C5.53623 21.013 4.97868 21.7178 4.35254 22.3584H23.5771C22.951 21.7178 22.3935 21.013 21.915 20.2549L21.9092 20.2461L21.9102 20.2451C21.1498 18.8195 20.706 17.2467 20.6094 15.6338L20.6084 15.625V11.7773C20.6385 10.886 20.4892 9.99739 20.1689 9.16504C19.8486 8.33279 19.3639 7.57377 18.7441 6.93262C18.1242 6.29136 17.3817 5.7809 16.5605 5.43262C15.7395 5.08438 14.8567 4.90527 13.9648 4.90527C13.073 4.90527 12.1902 5.08438 11.3691 5.43262C10.548 5.7809 9.80548 6.29136 9.18555 6.93262C8.56575 7.57377 8.08104 8.3328 7.76074 9.16504C7.44046 9.99739 7.29116 10.886 7.32129 11.7773V15.6338Z" fill="#3B82F6" stroke="#3B82F6" stroke-width="0.3"/>
<path d="M16.1797 24.7383L16.1543 24.9102C16.0777 25.43 15.8195 25.9069 15.4258 26.2549C15.0321 26.6026 14.5281 26.7994 14.0029 26.8115H14.002C13.4622 26.8193 12.9375 26.631 12.5264 26.2812C12.1154 25.9315 11.8454 25.444 11.7666 24.9102L11.7412 24.7383H16.1797Z" fill="#3B82F6" stroke="#3B82F6" stroke-width="0.3"/>
</svg>
