<svg width="33" height="33" viewBox="0 0 33 33" fill="none" xmlns="http://www.w3.org/2000/svg">
<path d="M16.2788 11.167C17.6933 11.167 19.0499 11.7289 20.0501 12.7291C21.0503 13.7293 21.6122 15.0858 21.6122 16.5003C21.6122 17.9148 21.0503 19.2714 20.0501 20.2716C19.0499 21.2718 17.6933 21.8337 16.2788 21.8337C14.8643 21.8337 13.5078 21.2718 12.5076 20.2716C11.5074 19.2714 10.9455 17.9148 10.9455 16.5003C10.9455 15.0858 11.5074 13.7293 12.5076 12.7291C13.5078 11.7289 14.8643 11.167 16.2788 11.167ZM16.2788 13.8337C15.5716 13.8337 14.8933 14.1146 14.3932 14.6147C13.8931 15.1148 13.6122 15.7931 13.6122 16.5003C13.6122 17.2076 13.8931 17.8858 14.3932 18.3859C14.8933 18.886 15.5716 19.167 16.2788 19.167C16.9861 19.167 17.6643 18.886 18.1644 18.3859C18.6645 17.8858 18.9455 17.2076 18.9455 16.5003C18.9455 15.7931 18.6645 15.1148 18.1644 14.6147C17.6643 14.1146 16.9861 13.8337 16.2788 13.8337ZM13.6122 29.8337C13.2788 29.8337 12.9988 29.5937 12.9455 29.2737L12.4522 25.7403C11.6122 25.407 10.8922 24.9537 10.1988 24.4203L6.87883 25.767C6.58549 25.8737 6.2255 25.767 6.0655 25.4737L3.39883 20.8603C3.31722 20.7229 3.28845 20.5605 3.3179 20.4035C3.34735 20.2464 3.433 20.1055 3.55883 20.007L6.37216 17.7937L6.27883 16.5003L6.37216 15.167L3.55883 12.9937C3.433 12.8952 3.34735 12.7542 3.3179 12.5972C3.28845 12.4401 3.31722 12.2777 3.39883 12.1403L6.0655 7.52699C6.2255 7.23366 6.58549 7.11366 6.87883 7.23366L10.1988 8.56699C10.8922 8.04699 11.6122 7.59366 12.4522 7.26033L12.9455 3.72699C12.9988 3.40699 13.2788 3.16699 13.6122 3.16699H18.9455C19.2788 3.16699 19.5588 3.40699 19.6122 3.72699L20.1055 7.26033C20.9455 7.59366 21.6655 8.04699 22.3588 8.56699L25.6788 7.23366C25.9722 7.11366 26.3322 7.23366 26.4922 7.52699L29.1588 12.1403C29.3322 12.4337 29.2522 12.7937 28.9988 12.9937L26.1855 15.167L26.2788 16.5003L26.1855 17.8337L28.9988 20.007C29.2522 20.207 29.3322 20.567 29.1588 20.8603L26.4922 25.4737C26.3322 25.767 25.9722 25.887 25.6788 25.767L22.3588 24.4337C21.6655 24.9537 20.9455 25.407 20.1055 25.7403L19.6122 29.2737C19.5588 29.5937 19.2788 29.8337 18.9455 29.8337H13.6122ZM15.2788 5.83366L14.7855 9.31366C13.1855 9.64699 11.7722 10.5003 10.7455 11.687L7.53216 10.3003L6.53216 12.0337L9.34549 14.1003C8.81216 15.6559 8.81216 17.3448 9.34549 18.9003L6.51883 20.9803L7.51883 22.7137L10.7588 21.327C11.7855 22.5003 13.1855 23.3537 14.7722 23.6737L15.2655 27.167H17.2922L17.7855 23.687C19.3722 23.3537 20.7722 22.5003 21.7988 21.327L25.0388 22.7137L26.0388 20.9803L23.2122 18.9137C23.7455 17.3537 23.7455 15.6603 23.2122 14.1003L26.0255 12.0337L25.0255 10.3003L21.8122 11.687C20.7645 10.4741 19.3433 9.64389 17.7722 9.32699L17.2788 5.83366H15.2788Z" fill="#3B82F6"/>
</svg>
