<svg width="33" height="33" viewBox="0 0 33 33" fill="none" xmlns="http://www.w3.org/2000/svg">
<path d="M13.9485 8.34619L14.3197 13.8661L14.504 16.6405C14.506 16.9259 14.5506 17.2093 14.6369 17.4817C14.8594 18.0105 15.3949 18.3465 15.9774 18.3231L24.8537 17.7424C25.2381 17.7361 25.6093 17.8799 25.8856 18.1421C26.1158 18.3607 26.2645 18.6465 26.3114 18.954L26.3272 19.1407C25.9598 24.2269 22.2242 28.4693 17.1485 29.5644C12.0727 30.6595 6.86779 28.3461 4.35959 23.8803C3.6365 22.5828 3.18484 21.1568 3.03115 19.6857C2.96695 19.2503 2.93868 18.8104 2.94662 18.3704C2.93868 12.9174 6.82194 8.20302 12.2578 7.0665C12.912 6.96462 13.5533 7.31096 13.8157 7.90778C13.8836 8.04599 13.9284 8.19402 13.9485 8.34619Z" fill="#3B82F6"/>
<path opacity="0.4" d="M29.612 13.5834L29.6027 13.6268L29.5758 13.69L29.5795 13.8635C29.5656 14.0933 29.4768 14.3143 29.324 14.493C29.1647 14.679 28.9471 14.8057 28.7075 14.8549L28.5614 14.8749L18.3203 15.5385C17.9796 15.5721 17.6404 15.4622 17.3872 15.2363C17.176 15.0479 17.0411 14.7938 17.003 14.5199L16.3156 4.29374C16.3036 4.25916 16.3036 4.22168 16.3156 4.1871C16.325 3.90522 16.4491 3.63878 16.6602 3.4473C16.8711 3.25582 17.1516 3.15526 17.4387 3.16808C23.5186 3.32276 28.6284 7.69471 29.612 13.5834Z" fill="#3B82F6"/>
</svg>
