<svg width="33" height="33" viewBox="0 0 33 33" fill="none" xmlns="http://www.w3.org/2000/svg">
<g clip-path="url(#clip0_681_1606)">
<path d="M29.3896 6.45215H3.16765C1.57622 6.45215 0.280273 7.75109 0.280273 9.34402V19.4117H32.2785V9.34402C32.2785 7.75259 30.9826 6.45215 29.3912 6.45215H29.3896ZM8.95738 12.4024H3.42415C3.20966 12.4024 3.03418 12.2269 3.03418 12.0124C3.03418 11.7979 3.20967 11.6224 3.42415 11.6224H8.95738C9.46885 11.6314 9.47185 12.3934 8.95738 12.4024ZM8.95738 10.2605H3.42415C2.91269 10.2545 2.90969 9.48951 3.42415 9.48053H8.95738C9.46885 9.48953 9.47185 10.2545 8.95738 10.2605ZM26.6702 13.1839C26.3418 13.1839 26.0343 13.1179 25.7448 12.9814C25.4598 13.1134 25.1478 13.1839 24.8163 13.1839C21.8494 13.0789 21.8539 8.80414 24.8163 8.70046C25.1478 8.70046 25.4598 8.77396 25.7448 8.90745C26.0343 8.77096 26.3417 8.70046 26.6702 8.70046C29.6357 8.80846 29.6326 13.0771 26.6702 13.1839Z" fill="#3B82F6"/>
<path d="M0.27832 20.1914H32.2766V21.7409H0.27832V20.1914Z" fill="#3B82F6"/>
<path d="M0.27832 22.5215V23.6569C0.27832 25.2484 1.57427 26.5488 3.1657 26.5488H29.3892C30.9806 26.5488 32.2766 25.2499 32.2766 23.6569V22.5215H0.27832Z" fill="#3B82F6"/>
<path d="M26.67 9.48047C26.619 9.48047 26.5681 9.48497 26.5186 9.48797C26.8545 9.87794 27.0615 10.3895 27.0615 10.9429C27.0615 11.4964 26.8591 12.0049 26.5231 12.3949C28.5435 12.5238 28.6965 9.55847 26.6716 9.48048L26.67 9.48047Z" fill="#3B82F6"/>
<path d="M25.5804 9.69462C24.658 9.09315 23.3245 9.82362 23.356 10.9441C23.356 11.7481 24.0115 12.4035 24.8155 12.4035C26.2824 12.4095 26.8239 10.4521 25.5804 9.69462Z" fill="#3B82F6"/>
</g>
<defs>
<clipPath id="clip0_681_1606">
<rect width="32" height="32" fill="white" transform="translate(0.27832 0.5)"/>
</clipPath>
</defs>
</svg>
