<svg width="34" height="36" viewBox="0 0 34 36" fill="none" xmlns="http://www.w3.org/2000/svg">
<rect x="0.5" y="0.568359" width="33" height="35" rx="6" fill="#00A706"/>
<path d="M26.1413 17.7767C26.0905 17.7259 25.1002 16.4563 23.5005 15.1867C22.5356 14.4249 21.5707 13.8409 20.6058 13.4092C19.387 12.8506 18.1681 12.5967 17.0001 12.5967C15.8321 12.5967 14.6132 12.876 13.3944 13.4092C12.4295 13.8409 11.4646 14.4503 10.4997 15.1867C8.87459 16.4563 7.88429 17.7259 7.8589 17.7767L7.63037 18.056L7.8589 18.3353C7.90969 18.3861 8.89998 19.6557 10.4997 20.9253C11.4646 21.6871 12.4295 22.2711 13.3944 22.7028C14.6132 23.2614 15.8321 23.5407 17.0001 23.5407C18.1681 23.5407 19.387 23.2614 20.6058 22.7028C21.5707 22.2711 22.5356 21.6617 23.5005 20.9253C25.1256 19.6557 26.1159 18.3861 26.1413 18.3353L26.3698 18.056L26.1413 17.7767ZM17.0001 22.3473C14.6386 22.3473 12.7088 20.4175 12.7088 18.056C12.7088 15.6945 14.6386 13.7647 17.0001 13.7647C19.3616 13.7647 21.2914 15.6945 21.2914 18.056C21.2914 20.4175 19.3616 22.3473 17.0001 22.3473ZM14.1816 18.056C14.1816 16.5071 15.4512 15.2375 17.0001 15.2375C18.549 15.2375 19.8186 16.5071 19.8186 18.056C19.8186 19.6049 18.549 20.8745 17.0001 20.8745C15.4512 20.8745 14.1816 19.6049 14.1816 18.056Z" fill="white"/>
</svg>
