<svg width="90" height="90" viewBox="0 0 90 90" fill="none" xmlns="http://www.w3.org/2000/svg">
<circle cx="45.0836" cy="45.1219" r="44.6364" fill="white"/>
<path d="M64.3398 58.3576C64.3273 58.3317 64.312 58.3082 64.2978 58.2834C64.265 58.2263 64.2286 58.1726 64.1875 58.1223C64.1678 58.0982 64.1485 58.0747 64.127 58.0521C64.0768 57.9996 64.0221 57.9527 63.9636 57.9103C63.9474 57.8986 63.9337 57.8844 63.917 57.8736C63.8407 57.8238 63.7581 57.7848 63.6722 57.7533C63.6637 57.7502 63.6569 57.7444 63.6483 57.7415L63.5013 57.6915C68.1262 53.4574 70.7457 47.5644 70.7457 41.2047C70.7457 28.8578 60.7007 18.8128 48.3541 18.8128C44.7545 18.8128 41.2449 19.6821 38.0803 21.3205C38.0141 21.0965 37.8893 20.8918 37.7063 20.7386C36.3696 19.6193 34.8269 18.848 33.1258 18.4475C33.1162 18.4452 33.1065 18.4438 33.0969 18.4415C33.0911 18.4403 33.0854 18.439 33.0796 18.4379C29.3898 17.5687 25.5244 18.6016 22.7305 21.2088C21.9823 21.9092 21.3302 22.718 20.7915 23.6121C20.7315 23.7117 20.6864 23.8195 20.6573 23.9322C19.9675 26.6156 19.5647 29.3417 19.4598 32.0283C19.0804 40.6156 21.5165 48.8853 26.505 55.9423C31.7982 63.431 39.5899 68.8018 48.4473 71.0668C50.4448 71.5736 52.4544 71.9222 54.4189 72.1027C54.4558 72.1062 54.4921 72.108 54.529 72.108C54.5741 72.108 54.6192 72.1056 54.6643 72.1003C56.0031 71.9486 57.3014 71.5525 58.5283 70.9215C61.351 69.4553 63.3929 66.9062 64.2337 63.905C64.26 63.8544 64.2951 63.8105 64.3144 63.755C64.3618 63.619 64.3788 63.4806 64.377 63.3445C64.4699 62.9333 64.5438 62.5158 64.591 62.0911C64.7245 60.883 64.6718 59.7165 64.4345 58.6233C64.414 58.5287 64.3801 58.4411 64.3398 58.3576ZM62.2002 59.7838C62.2009 59.7892 62.2009 59.7949 62.2016 59.8004C62.2366 60.0847 62.2515 60.3773 62.256 60.6737C62.2572 60.747 62.2575 60.8205 62.2568 60.8944C62.254 61.175 62.2393 61.4597 62.2095 61.749L45.753 56.0027C46.0797 55.4923 46.4528 55.0108 46.878 54.5736L62.2002 59.7838ZM68.3459 41.2047C68.3459 47.3323 65.6225 52.9753 60.8617 56.794L46.9635 52.0678C46.556 51.9301 46.1055 52.0192 45.7829 52.3045C44.2277 53.6778 43.08 55.4519 42.4569 57.414C39.4261 55.5187 36.8386 53.0685 34.7502 50.1145C32.7429 47.2747 31.3313 44.1666 30.5427 40.8572C31.3816 40.8534 32.2143 40.7489 33.0276 40.5639C33.069 40.5574 33.1092 40.5487 33.1491 40.5382C34.682 40.172 36.1358 39.4933 37.399 38.5271C37.4032 38.5242 37.4072 38.521 37.4115 38.5181C37.4321 38.5023 37.4543 38.489 37.4748 38.473C37.4922 38.4595 37.5052 38.4427 37.5216 38.4284C37.5542 38.4001 37.5855 38.371 37.6149 38.3394C37.6404 38.3119 37.6637 38.2835 37.6863 38.2542C37.7105 38.2226 37.7333 38.1904 37.7544 38.1564C37.7744 38.1241 37.7924 38.0914 37.8092 38.0576C37.8267 38.0222 37.8425 37.9864 37.8565 37.9492C37.87 37.9134 37.8814 37.8774 37.8914 37.8406C37.9015 37.8035 37.9101 37.7661 37.9167 37.7276C37.9236 37.6869 37.9278 37.6463 37.9305 37.6052C37.9319 37.5835 37.9374 37.5631 37.9377 37.5411L38.106 24.0536C41.1996 22.2005 44.7252 21.2126 48.3541 21.2126C59.3778 21.2126 68.3459 30.181 68.3459 41.2047ZM35.5456 36.8973C35.071 37.2204 34.5683 37.4943 34.0433 37.7189L34.0457 21.2772C34.6396 21.5341 35.2041 21.8494 35.7286 22.2352L35.5456 36.8973ZM57.4262 68.7901C56.4999 69.2664 55.5203 69.5728 54.5132 69.7011C52.7128 69.5289 50.8713 69.2061 49.0393 68.7415C40.7362 66.6182 33.429 61.5808 28.4648 54.5572C23.7863 47.9385 21.5016 40.1849 21.8575 32.1282C21.9536 29.6634 22.3169 27.1663 22.9373 24.7039C23.3436 24.0573 23.8252 23.4715 24.3695 22.9617C26.35 21.1131 29.0122 20.27 31.646 20.615L31.6434 38.3741C30.8429 38.4771 30.0275 38.4829 29.2186 38.3664C28.836 38.313 28.4525 38.4428 28.1848 38.7194C27.9167 38.9962 27.7981 39.3849 27.8655 39.7643C28.6177 43.992 30.2749 47.9403 32.7904 51.4995C35.399 55.1894 38.7233 58.1569 42.6713 60.3194C43.0138 60.5081 43.4259 60.5163 43.7766 60.344C44.1272 60.1723 44.3718 59.8401 44.4331 59.4546C44.5012 59.024 44.6032 58.6016 44.7318 58.1885L61.6452 64.0944C60.8648 66.0951 59.3828 67.7737 57.4262 68.7901Z" fill="#3B82F6"/>
<path d="M48.3539 26.0894C49.0169 26.0894 49.5541 25.5522 49.5541 24.8896V23.4902C49.5541 22.8275 49.0169 22.2903 48.3539 22.2903C47.6913 22.2903 47.1541 22.8275 47.1541 23.4902V24.8896C47.1541 25.5522 47.6913 26.0894 48.3539 26.0894Z" fill="#3B82F6"/>
<path d="M64.6342 42.4047H66.0597C66.7223 42.4047 67.2596 41.8674 67.2596 41.2048C67.2596 40.5421 66.7223 40.0049 66.0597 40.0049H64.6342C63.9716 40.0049 63.4343 40.5421 63.4343 41.2048C63.4343 41.8674 63.9716 42.4047 64.6342 42.4047Z" fill="#3B82F6"/>
<path d="M41.2113 48.6451C41.4442 48.8689 41.7432 48.9797 42.042 48.9797C42.3575 48.9797 42.6725 48.856 42.908 48.6105L49.2197 42.0358C49.4341 41.8123 49.5537 41.5143 49.5537 41.2047V28.2573C49.5537 27.5946 49.017 27.0574 48.3541 27.0574C47.6914 27.0574 47.1542 27.5946 47.1542 28.2573V40.7219L41.1767 46.949C40.718 47.4271 40.7335 48.1864 41.2113 48.6451Z" fill="#3B82F6"/>
</svg>
