<svg width="90" height="90" viewBox="0 0 90 90" fill="none" xmlns="http://www.w3.org/2000/svg">
<circle cx="45.0836" cy="45.1219" r="44.6364" fill="white"/>
<path fill-rule="evenodd" clip-rule="evenodd" d="M19.0463 66.5101V23.7343C19.0463 22.4998 19.5345 21.3165 20.4086 20.4471C21.2804 19.5753 22.4614 19.0847 23.6958 19.0847H47.8734C49.1079 19.0847 50.2889 19.5752 51.1607 20.4471C52.0348 21.3165 52.523 22.4998 52.523 23.7343V37.7873L59.4207 41.0048C60.9853 41.7325 62.1965 43.0529 62.7869 44.6756L68.5431 60.4933L70.5889 61.4604C70.9167 61.6139 71.1236 61.9463 71.1213 62.3113L71.0376 70.2386C71.0376 70.3804 71.005 70.5176 70.9399 70.6431C70.7818 70.9639 70.454 71.1615 70.0983 71.1592C69.9565 71.1592 69.8194 71.1243 69.6938 71.0616L57.7327 65.1006C56.5912 64.5334 55.6427 63.6453 55.0034 62.5434C54.9918 62.5248 54.9802 62.5015 54.9709 62.4806C54.1107 60.6952 53.7108 58.9028 53.8247 57.0406C53.8364 56.8779 53.8619 56.7152 53.8991 56.5571C53.9317 56.4199 53.9805 56.2153 54.0247 56.041C54.034 56.0015 54.0316 55.9643 54.02 55.9294L52.5229 51.8215V66.5096C52.5229 67.7441 52.0347 68.9274 51.1605 69.7969C50.2888 70.6686 49.1078 71.1592 47.8733 71.1592H23.6957C22.4612 71.1592 21.2802 70.6687 20.4085 69.7969C19.5343 68.9274 19.0463 67.7445 19.0463 66.5101ZM50.6632 36.9178V23.7343C50.6632 22.9927 50.3703 22.2836 49.8472 21.7629C49.3218 21.2375 48.6127 20.9445 47.8734 20.9445H43.6772L43.0216 24.2271C42.7589 25.529 41.6151 26.4682 40.2853 26.4682H31.2838C29.954 26.4682 28.8103 25.529 28.5475 24.2271L27.8919 20.9445H23.6957C22.9564 20.9445 22.2474 21.2375 21.722 21.7629C21.1989 22.2836 20.906 22.9927 20.906 23.7343V60.001H50.6631V45.6456L44.3236 40.1266C43.9772 39.8244 43.7215 39.4548 43.5634 39.0549L36.7312 47.6868C36.5754 47.8821 36.3476 48.0076 36.0965 48.0355C35.8478 48.0611 35.599 47.9844 35.4084 47.824L30.1963 43.4813C29.8011 43.1512 29.7476 42.5653 30.0777 42.1725C30.4055 41.7772 30.9937 41.7238 31.3866 42.0539L35.8641 45.7851L43.5241 36.1117C43.7496 35.8234 44.11 35.7072 44.4471 35.7793C45.2608 35.1051 46.4092 34.9353 47.4042 35.4003L50.6632 36.9178ZM41.7801 20.9442H29.7892L30.3727 23.8618C30.4587 24.2942 30.84 24.6081 31.284 24.6081H40.2855C40.7295 24.6081 41.1108 24.2942 41.1968 23.8618L41.7801 20.9442ZM69.1935 68.7347C69.2144 66.5913 69.254 62.8879 69.254 62.8879L67.4057 62.0138C67.1826 61.9092 67.0129 61.7209 66.9268 61.493L61.0382 45.3123C60.6174 44.1546 59.7526 43.2108 58.6344 42.69L46.6179 37.085C46.2157 36.8967 45.7368 37.0175 45.4741 37.3756L45.4066 37.4709C45.1184 37.8591 45.1788 38.4054 45.5438 38.7216L54.3549 46.396C55.5591 46.3216 56.7192 47.0376 57.1516 48.2256L59.3787 54.3418C59.5554 54.8254 59.3043 55.3601 58.8208 55.5344C58.3395 55.7111 57.8049 55.46 57.6305 54.9788L55.4057 48.8626C55.229 48.379 54.6943 48.1326 54.2107 48.3069C53.7295 48.4836 53.4807 49.016 53.6551 49.4995L55.766 55.2975C55.9055 55.6765 55.9264 56.0949 55.8288 56.4855C55.7893 56.6529 55.7404 56.8482 55.7126 56.9737C55.7102 56.9783 55.7102 56.9876 55.7079 56.9946C55.694 57.0481 55.6847 57.1016 55.6823 57.1574C55.5893 58.6917 55.9264 60.1679 56.6355 61.6488C57.0935 62.4183 57.7607 63.0367 58.5604 63.4343L69.1935 68.7347ZM20.9055 61.8602V66.5098C20.9055 67.2514 21.1984 67.9604 21.7215 68.4812C22.2469 69.0066 22.9559 69.2995 23.6952 69.2995H47.8729C48.6121 69.2995 49.3212 69.0066 49.8466 68.4812C50.3697 67.9604 50.6626 67.2514 50.6626 66.5098V61.8602H20.9055ZM43.2233 46.9841H41.9819C41.4681 46.9841 41.052 46.5656 41.052 46.0518C41.052 45.5404 41.4681 45.1219 41.9819 45.1219H43.2233V43.8829C43.2233 43.3667 43.6418 42.9506 44.1532 42.9506C44.667 42.9506 45.0831 43.3668 45.0831 43.8829V45.1219H46.3245C46.8383 45.1219 47.2544 45.5404 47.2544 46.0518C47.2544 46.5656 46.8383 46.9841 46.3245 46.9841H45.0831V48.2232C45.0831 48.7369 44.667 49.1507 44.1532 49.1507C43.6418 49.1507 43.2233 48.7369 43.2233 48.2232V46.9841ZM39.0829 49.2461C39.5386 49.0113 40.0988 49.1926 40.3337 49.6506C40.5661 50.1086 40.3848 50.6665 39.9268 50.9037C38.618 51.5686 37.1348 51.9452 35.5656 51.9452C30.2604 51.9452 25.9528 47.6397 25.9528 42.3324C25.9528 37.0252 30.2606 32.7197 35.5656 32.7197C37.5626 32.7197 39.4177 33.3288 40.9544 34.3726C41.3798 34.6585 41.4914 35.2397 41.2031 35.6629C40.9149 36.086 40.336 36.1999 39.9129 35.9116C38.6715 35.07 37.1766 34.5772 35.5655 34.5772C31.2856 34.5772 27.8126 38.0551 27.8126 42.3325C27.8126 46.6124 31.2858 50.0878 35.5655 50.0878C36.8302 50.0878 38.0274 49.7831 39.0829 49.2461ZM31.7668 66.51C31.2531 66.51 30.8369 66.0938 30.8369 65.5824C30.8369 65.0663 31.2531 64.6501 31.7668 64.6501H39.8012C40.315 64.6501 40.7311 65.0663 40.7311 65.5824C40.7311 66.0938 40.315 66.51 39.8012 66.51H31.7668Z" fill="#3B82F6"/>
</svg>
