<svg width="90" height="90" viewBox="0 0 90 90" fill="none" xmlns="http://www.w3.org/2000/svg">
<circle cx="45.0835" cy="45.1219" r="44.6364" fill="white"/>
<path d="M56.0108 50.0059L48.4678 53.9178C48.2487 52.9199 47.5317 52.0895 46.5415 51.7439L36.2755 48.175C33.7586 47.3086 31.002 47.4865 28.6969 48.683L19.6739 53.3582L19.3361 52.7058C19.2742 52.582 19.1633 52.4918 19.0344 52.4505C18.9029 52.4093 18.7585 52.417 18.6424 52.4841L16.3448 53.6729C16.0895 53.8044 15.994 54.1138 16.1256 54.3665L21.4197 64.591C21.4893 64.7148 21.5924 64.805 21.7214 64.8463C21.7755 64.8592 21.8245 64.8669 21.8787 64.8669C21.9612 64.8669 22.0437 64.854 22.1185 64.8128L24.4084 63.624C24.6637 63.4925 24.7591 63.183 24.6276 62.9303L24.2228 62.1464L27.8252 60.2768C28.7871 59.7817 29.9166 59.6373 31.0022 59.8642L40.8141 61.9813C42.9596 62.4481 45.1876 62.1541 47.0984 61.169L58.6716 55.1657C59.3653 54.8072 59.8758 54.2038 60.108 53.4612C60.3426 52.7262 60.273 51.9346 59.9146 51.246C59.1796 49.8226 57.4184 49.2656 56.0026 50.0005L56.0108 50.0059ZM59.1336 53.1545C58.9815 53.629 58.6514 54.0209 58.2053 54.2556L46.6322 60.2511C44.9328 61.1305 42.9472 61.3935 41.0337 60.9809L31.2219 58.8638C29.9093 58.5828 28.5323 58.7607 27.3563 59.3667L23.7539 61.2362L20.1514 54.2762L29.1744 49.601C31.2245 48.536 33.6923 48.3761 35.933 49.1549L46.2064 52.7238C47.011 52.9998 47.5602 53.8301 47.5061 54.6966C47.4932 54.8539 47.4648 55.0138 47.4158 55.1633C47.2714 55.5888 46.9826 55.9344 46.5906 56.133C46.178 56.347 45.7113 56.3805 45.2574 56.2232L39.3444 54.1731C39.0763 54.0777 38.7797 54.2221 38.6843 54.4903C38.594 54.7585 38.7333 55.055 39.0066 55.1427L44.9145 57.198C45.6366 57.4455 46.4075 57.3965 47.0677 57.0536C47.6995 56.7235 48.1688 56.1742 48.3957 55.4934C48.4447 55.349 48.4783 55.2046 48.5066 55.0602L56.4826 50.9265C57.4032 50.4443 58.5379 50.8105 59.0123 51.7233C59.247 52.1694 59.2882 52.68 59.1361 53.1545L59.1336 53.1545Z" fill="#3B82F6"/>
<path d="M74.0412 35.0858L69.152 25.6582C69.0824 25.5344 68.9792 25.4441 68.8503 25.4029C68.7188 25.3616 68.5744 25.3694 68.4583 25.4312L66.3412 26.5324C66.0859 26.6639 65.9905 26.9733 66.122 27.2261L66.4804 27.9146L63.1874 29.6191C62.3132 30.073 61.2817 30.2097 60.2915 29.9905L51.2428 28.0435C49.2546 27.6103 47.1865 27.8785 45.4174 28.7991L44.6335 29.2039C44.5433 29.1962 44.4556 29.1833 44.3731 29.1833C42.9986 29.1833 41.7324 29.9131 41.0182 31.0735L34.739 34.333C34.0917 34.6631 33.6172 35.233 33.3981 35.9215C33.1789 36.6152 33.2408 37.3527 33.576 37.9974C34.0427 38.9051 34.9711 39.4698 35.9897 39.4698C36.4306 39.4698 36.8484 39.3667 37.2403 39.1604L40.5205 37.461C40.6159 37.6054 40.768 37.7086 40.9537 37.7086H41.2632V38.7942C41.2632 38.9309 41.3173 39.0624 41.4153 39.1578L42.1786 39.9211V41.0557C42.1786 41.1718 42.2198 41.2827 42.2895 41.3729L42.5448 41.7107L41.6035 43.08C41.4514 43.2992 41.4926 43.5958 41.6938 43.7686L42.1811 44.1734V45.4937C42.1811 45.7 42.3049 45.8857 42.4906 45.9682L42.849 46.1255L42.4442 46.3602C42.2869 46.4556 42.1837 46.6206 42.1837 46.8063V47.8791C42.1837 48.0157 42.2379 48.1473 42.3359 48.2427L43.8341 49.7486C43.9295 49.844 44.061 49.9008 44.1977 49.9008C44.3344 49.9008 44.4659 49.8466 44.5613 49.7486L46.0595 48.2427C46.1549 48.1473 46.2117 48.0157 46.2117 47.8791V39.9236L46.9749 39.1603C47.0703 39.0649 47.1271 38.9334 47.1271 38.7967V37.9715L55.4127 40.8519C56.3823 41.1898 57.3931 41.3548 58.3911 41.3548C59.8016 41.3548 61.189 41.0247 62.4345 40.3774L70.7201 36.0864L71.0089 36.6563C71.0786 36.7724 71.1817 36.8704 71.3106 36.9116C71.3648 36.9245 71.4138 36.9323 71.4679 36.9323C71.5505 36.9323 71.633 36.9116 71.7026 36.8781L73.8197 35.777C73.9435 35.7151 74.0338 35.6042 74.075 35.4753C74.1163 35.3437 74.1085 35.2071 74.0467 35.0833L74.0412 35.0858ZM40.4354 33.1182V36.3442L36.7633 38.2499C35.9587 38.6702 34.9066 38.3324 34.4863 37.5278C34.28 37.1281 34.2388 36.6691 34.3754 36.241C34.5121 35.8078 34.8087 35.4571 35.2083 35.2508L40.4818 32.5148C40.4535 32.7134 40.4329 32.9145 40.4329 33.1208L40.4354 33.1182ZM44.2029 34.0595C44.141 34.2374 44.1075 34.4231 44.0869 34.6036H43.5428V33.1183C43.5428 32.6644 43.9141 32.3008 44.368 32.3008C44.7109 32.3008 44.9946 32.5071 45.1184 32.8088C44.698 33.1182 44.3757 33.5515 44.2029 34.0595ZM46.088 38.5852L45.3247 39.3485C45.2293 39.4439 45.1726 39.5754 45.1726 39.7121V47.6676L44.1901 48.6501L43.2076 47.6676V47.1028L44.2391 46.5046C44.4041 46.4091 44.4995 46.2235 44.4943 46.0301C44.4815 45.8367 44.3628 45.6665 44.1849 45.5891L43.2075 45.1559V43.931C43.2075 43.7788 43.1457 43.6344 43.0296 43.539L42.7124 43.2786L43.6073 41.9788C43.731 41.7932 43.7233 41.5534 43.5866 41.3728L43.2076 40.8855V39.7096C43.2076 39.5729 43.1534 39.4414 43.0554 39.346L42.2921 38.5827V37.7086H46.088L46.088 38.5852ZM61.9522 39.4645C60.0671 40.4419 57.8056 40.5914 55.7503 39.8771L46.8046 36.7698H46.7969L46.2734 36.5918C45.6338 36.3726 45.1671 35.7589 45.1052 35.0781C45.1052 34.9878 45.0923 34.9053 45.1052 34.8022C45.113 34.6578 45.1388 34.5211 45.18 34.3818C45.3115 34.0028 45.572 33.6933 45.9227 33.5077C45.9356 33.5077 45.9433 33.4948 45.951 33.487C46.3146 33.3143 46.7273 33.2936 47.1192 33.4329L52.5783 35.3231C52.8543 35.4185 53.1431 35.2741 53.2385 35.0059C53.3287 34.7377 53.1843 34.4412 52.9161 34.3535L48.2615 32.7366C48.1713 31.8289 47.7999 30.9831 47.1475 30.3359C46.8458 30.0342 46.4951 29.7866 46.1238 29.6009C47.6297 28.8866 49.3549 28.6855 51.0208 29.0516L60.0695 30.9986C61.2996 31.2668 62.5735 31.1017 63.6591 30.5318L66.9521 28.8273L70.24 35.1736L61.9544 39.4646L61.9522 39.4645Z" fill="#3B82F6"/>
</svg>
