<svg width="90" height="90" viewBox="0 0 90 90" fill="none" xmlns="http://www.w3.org/2000/svg">
<circle cx="45.0836" cy="45.1219" r="44.6364" fill="white"/>
<path d="M37.8777 30.83H20.4565C20.0437 30.8325 19.7114 31.1674 19.7114 31.5802V41.0336C19.7189 41.4389 20.0487 41.7662 20.4565 41.7662H37.9106C38.1095 41.7662 38.2983 41.6856 38.4367 41.5472C38.5777 41.4062 38.6558 41.2174 38.6558 41.021V31.5805C38.6583 31.3766 38.5752 31.1803 38.4292 31.0368C38.2806 30.8958 38.0816 30.8199 37.8777 30.83ZM37.1325 40.2885H21.2066V32.3259H37.1325V40.2885ZM23.1401 37.1466C23.1401 36.9477 23.2156 36.7564 23.3566 36.6154C23.4976 36.4744 23.6864 36.3939 23.8853 36.3939H26.3021L27.4828 34.3799H27.4853C27.6061 34.1684 27.8227 34.0299 28.0643 34.0098C28.3085 33.9896 28.5452 34.0903 28.6988 34.2792L30.4434 36.3662H34.4714L34.474 36.3687C34.8843 36.3687 35.2191 36.701 35.2191 37.1139C35.2191 37.5242 34.8843 37.859 34.474 37.859H30.0683C29.8493 37.859 29.6403 37.7634 29.4993 37.5972L28.2179 36.054L27.3594 37.5444L27.3569 37.5419C27.2185 37.7785 26.9592 37.9195 26.6847 37.9119H23.8852C23.6838 37.9144 23.4899 37.8339 23.349 37.6879C23.208 37.5444 23.1325 37.348 23.1401 37.1466ZM32.538 50.5726L31.3421 50.6053L33.545 45.9051L33.5475 45.9076C33.6986 45.5854 33.6759 45.2078 33.4871 44.9081C33.2681 44.6085 32.9156 44.4373 32.5456 44.4499L26.793 44.382V44.3845C26.3046 44.3845 25.8791 44.7168 25.7583 45.1901L24.0212 51.7684C23.9406 52.0856 24.0061 52.4254 24.2024 52.6873C24.3988 52.9516 24.7059 53.1077 25.0333 53.1178L26.3751 53.1581L25.4109 57.609C25.3001 58.0798 25.5191 58.5657 25.9471 58.7897C26.1057 58.8779 26.2844 58.9232 26.4632 58.9257C26.7527 58.9232 27.0296 58.8048 27.2285 58.5959L33.3109 52.4053C33.623 52.0931 33.7137 51.6223 33.5374 51.217C33.3612 50.8116 32.9534 50.5574 32.5128 50.5725L32.538 50.5726ZM27.1832 56.5341L27.9687 53.0172C28.0493 52.705 27.9838 52.3727 27.7925 52.1134C27.5986 51.8541 27.2965 51.698 26.9743 51.6879L25.6325 51.6401L27.143 45.8472L31.9162 45.9077L29.7083 50.6079H29.7058C29.5523 50.9402 29.5799 51.3279 29.7813 51.6351C29.9903 51.9447 30.3453 52.131 30.7204 52.1235H31.5587L27.1832 56.5341ZM74.9359 26.3237H66.8121C65.1354 26.3036 63.5519 27.0916 62.555 28.4384L56.5809 36.2728C56.3543 36.5699 56.382 36.9903 56.6488 37.2546L57.9177 38.5235L55.9717 40.6307H55.9692C55.3146 41.3406 54.9571 42.2746 54.9697 43.2414V58.548C54.9697 59.852 53.9149 60.9094 52.6133 60.9119H51.3168C50.0153 60.9094 48.9578 59.8521 48.9553 58.548V49.9834C48.9528 48.2085 47.7419 46.6653 46.0199 46.2423V43.5561V43.5586C46.0199 43.1457 45.6876 42.8134 45.2747 42.8134H42.3342V29.682C42.3317 27.5572 40.6122 25.8377 38.4874 25.8352H38.3867V22.23C38.3867 21.8171 38.0544 21.4849 37.6416 21.4849H20.6786C20.2658 21.4849 19.9335 21.8172 19.9335 22.23V25.8352H19.8454C17.7231 25.8377 16.0011 27.5572 15.9986 29.682V61.4759H15.9658C15.1678 61.4784 14.5208 62.1279 14.5208 62.926V68.0139C14.5208 68.2128 14.5988 68.4041 14.7373 68.5426C14.8782 68.6835 15.0696 68.7616 15.2659 68.7591H43.0872C43.2861 68.7591 43.4749 68.681 43.6134 68.5426C43.7544 68.4016 43.8324 68.2128 43.8324 68.0139V62.926C43.8324 62.1254 43.1829 61.4759 42.3823 61.4759V51.0107H45.3228C45.5217 51.0107 45.7105 50.9301 45.8489 50.7916C45.9899 50.6507 46.068 50.4619 46.068 50.2655V47.8084C46.9365 48.1784 47.503 49.0319 47.5055 49.976V58.5483C47.508 60.6782 49.235 62.4027 51.3649 62.4027H52.6614C54.7686 62.3725 56.4628 60.658 56.4679 58.5483V43.2417C56.4553 42.6476 56.6793 42.0736 57.0922 41.6456L58.9929 39.5787L60.2215 40.8072L60.219 40.8047C60.3599 40.9407 60.5487 41.0187 60.7426 41.0212H60.798C61.012 41.0061 61.2109 40.8979 61.3418 40.7242L65.8331 34.8306C66.2258 34.2969 66.8552 33.9873 67.5173 33.9973H74.9012C75.1001 33.9973 75.2889 33.9193 75.4299 33.7808C75.5684 33.6398 75.6464 33.451 75.6464 33.2521V27.0842C75.654 26.6788 75.3387 26.3439 74.9359 26.3237ZM21.4234 22.9679H36.9111V25.8278H21.4234V22.9679ZM42.3293 67.2765H16.011V62.979H42.3267L42.3293 67.2765ZM17.4888 61.4836V29.682C17.4888 28.3829 18.5386 27.3281 19.8376 27.3256H38.4878C39.7894 27.3256 40.8442 28.3804 40.8442 29.682V61.4759L17.4888 61.4836ZM44.5296 49.5206H42.3343V44.3043H44.5296V49.5206ZM64.6698 33.9246L60.6695 39.1485L58.1847 36.6587L63.7635 29.3405C64.476 28.3713 65.6114 27.8099 66.8123 27.83H69.6646V32.5302H67.5172V32.5277C66.3944 32.5126 65.3295 33.0312 64.6497 33.925L64.6698 33.9246ZM74.2089 32.5073H71.1551V27.807H74.1887L74.2089 32.5073Z" fill="#3B82F6"/>
</svg>
