<svg width="90" height="90" viewBox="0 0 90 90" fill="none" xmlns="http://www.w3.org/2000/svg">
<circle cx="45.0836" cy="45.1219" r="44.6364" fill="white"/>
<path d="M16.6865 58.5196L34.3081 65.7015C35.4158 66.7368 36.8927 67.3884 38.5289 67.3884C41.9461 67.3884 44.7262 64.6083 44.7262 61.1911C44.7262 60.735 44.6683 60.3006 44.5742 59.8735L44.5814 59.8662L50.1126 46.2916H51.3216C51.5171 46.2916 51.7053 46.2265 51.8646 46.1106L57.4827 41.9116L67.1985 45.4373C67.2998 45.4735 67.4012 45.4953 67.5098 45.4953C67.6401 45.4953 67.7704 45.4663 67.8935 45.4084C68.1107 45.307 68.2772 45.126 68.3568 44.8944L68.7043 43.9387C68.8926 43.9604 69.0808 43.9894 69.2618 43.9894C69.9713 43.9894 70.6808 43.8156 71.3469 43.4609C72.4473 42.8817 73.2944 41.8971 73.7287 40.6953C74.1704 39.4863 74.1486 38.1831 73.6708 37.0392C73.3016 36.1632 72.7079 35.4465 71.9478 34.9759L72.288 34.0419C72.4618 33.5714 72.2156 33.0573 71.745 32.8836L44.176 22.9072C43.9515 22.8275 43.7054 22.842 43.4882 22.9361C43.271 23.0375 43.1045 23.2185 43.0248 23.4501L41.3452 28.1053C41.2221 28.4456 41.3163 28.8221 41.5769 29.0682L45.7036 32.9487H38.2755C37.776 32.9487 37.3706 33.3542 37.3706 33.8537V45.4011C37.3706 45.9007 37.776 46.3061 38.2755 46.3061H40.0421L36.3208 55.421C35.9226 55.573 35.5389 55.7613 35.1842 55.9929L17.3671 48.7314C17.092 48.6156 16.7734 48.6518 16.52 48.8183C16.2739 48.9848 16.1218 49.2672 16.1218 49.564V57.6798C16.1218 58.049 16.3463 58.3821 16.6865 58.5196ZM71.9984 37.727C72.3025 38.4582 72.3097 39.2908 72.0274 40.0799C71.745 40.8618 71.2021 41.4917 70.507 41.8609C70.1306 42.0564 69.7324 42.1577 69.3342 42.1722L71.2962 36.7496C71.593 37.0102 71.8392 37.336 71.9984 37.727ZM43.242 28.156L44.4149 24.9126L70.2754 34.2736L66.9595 43.4392L59.1985 40.6157L62.1017 38.4437C62.3261 38.27 62.4636 38.0021 62.4636 37.7197V33.8392C62.4636 33.3397 62.0582 32.9343 61.5587 32.9343H48.3316L43.242 28.156ZM39.1733 44.4889V34.7442H60.6609V37.2709L51.0176 44.4889H50.8438L52.6899 39.9496C52.8058 39.6745 52.7696 39.3559 52.6031 39.1025C52.4366 38.8564 52.1542 38.7044 51.8574 38.7044H43.7416C43.3724 38.7044 43.0466 38.9288 42.909 39.2691L40.7805 44.4889H39.1733ZM44.3497 40.5143H50.518L43.5533 57.6002C42.4312 56.0291 40.5995 55.0011 38.5289 55.0011C38.5 55.0011 38.471 55.0083 38.4421 55.0083L44.3497 40.5143ZM38.5217 56.8038C40.9398 56.8038 42.909 58.773 42.909 61.1911C42.909 63.6092 40.9398 65.5784 38.5217 65.5784C36.1036 65.5784 34.1344 63.6092 34.1344 61.1911C34.1344 58.773 36.1036 56.8038 38.5217 56.8038ZM17.9245 50.9106L33.7072 57.3468C32.8602 58.4038 32.3244 59.7359 32.3244 61.1911C32.3244 61.8572 32.4548 62.4798 32.6502 63.0807L17.9173 57.0789V50.9106H17.9245Z" fill="#3B82F6"/>
</svg>
