<svg width="90" height="90" viewBox="0 0 90 90" fill="none" xmlns="http://www.w3.org/2000/svg">
<circle cx="45.0836" cy="45.1219" r="44.6364" fill="white"/>
<path d="M57.8105 63.0576C58.0114 62.9678 58.2384 62.9508 58.4521 63.0098H58.4512C60.0798 63.4205 61.8812 64.0045 63.2812 64.8066C64.6685 65.6015 65.7449 66.6599 65.7451 68.0449C65.7451 69.1838 64.9934 70.149 63.8047 70.9453C62.6118 71.7444 60.9304 72.409 58.9521 72.9404C54.9921 74.0042 49.778 74.5537 44.7305 74.5537C39.6829 74.5537 34.4679 74.0043 30.5078 72.9404C28.5296 72.409 26.8481 71.7444 25.6553 70.9453C24.4666 70.149 23.7158 69.1837 23.7158 68.0449C23.7161 66.6598 24.793 65.6011 26.1807 64.8066C27.5177 64.0412 29.2203 63.4754 30.7881 63.0693L31.0059 63.0098C31.2195 62.9507 31.4467 62.9679 31.6475 63.0576L31.7314 63.1006L31.7324 63.1016L31.8135 63.1533C31.9677 63.2646 32.0843 63.4188 32.1484 63.5967L32.1758 63.6875V63.6885L32.1943 63.7812C32.2258 63.9984 32.1811 64.2215 32.0625 64.4121L32.0635 64.4131C31.931 64.6296 31.7156 64.78 31.4727 64.8359L31.4736 64.8369C29.2518 65.3956 27.7639 66.0173 26.8379 66.6035C25.8944 67.2008 25.5999 67.717 25.5996 68.0449C25.5996 68.3433 25.8574 68.8213 26.6904 69.3838C27.5009 69.9309 28.8004 70.5182 30.7383 71.0605L30.7812 71.0713C35.3405 72.2022 40.0281 72.7395 44.7266 72.6709L44.7334 72.6699L44.7305 72.8906L44.7334 72.6709C49.4279 72.7395 54.1131 72.2022 58.6709 71.0723L59.3779 70.8662C60.9575 70.38 62.0535 69.8656 62.7686 69.3828C63.6013 68.8205 63.8594 68.3427 63.8594 68.043C63.8593 67.7151 63.5641 67.1982 62.6201 66.6006C61.6993 66.0178 60.2232 65.3999 58.0225 64.8438L57.9941 64.8379C57.7775 64.79 57.5838 64.6683 57.4492 64.4922L57.3955 64.4131C57.3537 64.3448 57.3212 64.2719 57.2979 64.1963L57.2305 64.1289L57.2822 64.1416C57.2463 63.9946 57.2451 63.8392 57.2822 63.6885L57.2832 63.6846L57.3115 63.5947C57.3877 63.3892 57.5331 63.2152 57.7246 63.1025L57.7266 63.1006L57.8105 63.0576ZM45.2734 15.1064C50.7349 15.171 55.9832 17.2463 60.0137 20.9346L60.4121 21.3086L60.4141 21.3096L60.7871 21.6836C64.592 25.589 66.7156 30.8413 66.6885 36.3066L66.6807 36.7959C66.5129 41.8776 63.7718 47.6196 60.2852 52.9414C56.68 58.4441 52.2498 63.5389 48.9434 67.0547L48.9424 67.0537C47.854 68.2233 46.3273 68.8866 44.7305 68.8867C43.3348 68.8867 41.9921 68.3802 40.9492 67.4717V67.5166L40.5166 67.0566C37.2114 63.5409 32.7812 58.4464 29.1758 52.9434C25.6889 47.6212 22.9481 41.8787 22.7803 36.7959L22.7715 36.3066C22.7438 30.8418 24.8677 25.5893 28.6729 21.6836L29.0479 21.3086L29.4463 20.9346C33.4771 17.2462 38.7253 15.1711 44.1865 15.1064H45.2734ZM44.7305 16.9902C33.4626 16.9902 24.6582 25.4819 24.6582 36.3066C24.6583 40.3088 26.5426 45.3259 30.3135 51.2334L30.96 52.2012C34.0013 56.698 37.388 60.9503 41.0898 64.9189L41.8877 65.7646L41.8896 65.7676L42.0303 65.9121C42.7508 66.613 43.7196 67.0088 44.7305 67.0088C45.8086 67.0087 46.8379 66.558 47.5703 65.7676L47.5723 65.7646L48.3701 64.9189C52.335 60.6671 55.9407 56.0895 59.1436 51.2363C62.9147 45.3288 64.8018 40.3113 64.8018 36.3086C64.8016 25.4817 55.998 16.9905 44.7305 16.9902ZM45.1367 24.4863C47.9478 24.6151 50.6172 25.7863 52.6201 27.7822L53.0098 28.1895C54.9017 30.2703 55.9567 32.9886 55.957 35.8135L55.9453 36.373C55.8269 38.9762 54.8108 41.4579 53.0732 43.3984L52.6904 43.8057C50.5855 45.9325 47.7236 47.1388 44.7314 47.1582L44.7305 47.1572C41.7175 47.1882 38.8137 46.0193 36.6631 43.9053V43.9062C34.6465 41.9262 33.449 39.2685 33.2891 36.459L33.2705 35.8945C33.2511 32.8809 34.43 29.9814 36.5518 27.8379L36.958 27.4473C39.0326 25.548 41.7467 24.4838 44.5723 24.4746L45.1367 24.4863ZM44.416 26.3643C42.0719 26.4719 39.8444 27.4472 38.1729 29.1123V29.1133C36.3901 30.8869 35.3897 33.2994 35.3896 35.8145V35.8154C35.3758 38.3089 36.3528 40.7031 38.1055 42.4766V42.4775L38.4404 42.8008C40.1538 44.3727 42.3965 45.257 44.7324 45.2744H44.7334L45.2031 45.2686C47.5482 45.1802 49.7842 44.222 51.4688 42.5723L51.7969 42.2344C53.3879 40.5089 54.2861 38.2485 54.3057 35.8906L54.2979 35.4209C54.2072 33.2325 53.3597 31.1423 51.8984 29.5088L51.5762 29.166C49.8093 27.3783 47.4006 26.3661 44.8857 26.3545L44.416 26.3643Z" fill="#3B82F6" stroke="#3B82F6" stroke-width="0.5"/>
</svg>
