<svg width="90" height="90" viewBox="0 0 90 90" fill="none" xmlns="http://www.w3.org/2000/svg">
<circle cx="45.0836" cy="45.1219" r="44.6364" fill="white"/>
<path fill-rule="evenodd" clip-rule="evenodd" d="M63.0248 20.0392H27.1363V38.638H63.0248V20.0392ZM53.637 64.7287H36.5241C35.7988 64.7314 35.1039 65.0207 34.5911 65.5336C34.0782 66.0464 33.7889 66.7413 33.7862 67.4666V70.2044H56.3749V67.4666C56.3722 66.7413 56.0829 66.0464 55.57 65.5336C55.0572 65.0207 54.3623 64.7314 53.637 64.7287ZM43.3627 63.1106H46.8013V40.2561H43.3657V63.1106H43.3627ZM36.5241 63.1106H41.7458V40.2561H26.3299C26.1152 40.2561 25.9094 40.1709 25.7576 40.0191C25.6058 39.8673 25.5205 39.6614 25.5205 39.4468V19.2305C25.5204 19.1241 25.5412 19.0187 25.5818 18.9204C25.6224 18.822 25.682 18.7327 25.7571 18.6574C25.8323 18.5821 25.9216 18.5224 26.0199 18.4816C26.1181 18.4409 26.2235 18.4199 26.3299 18.4199H63.8372C63.9434 18.4199 64.0487 18.4409 64.1469 18.4815C64.2451 18.5222 64.3343 18.5818 64.4095 18.657C64.4846 18.7321 64.5442 18.8214 64.5849 18.9196C64.6256 19.0178 64.6465 19.123 64.6465 19.2293V39.4456C64.6467 39.5522 64.6258 39.6578 64.585 39.7564C64.5442 39.8549 64.4843 39.9444 64.4088 40.0197C64.3333 40.095 64.2437 40.1547 64.1451 40.1953C64.0465 40.2359 63.9408 40.2565 63.8342 40.2561H48.4165V63.1106H53.6382C54.7926 63.1134 55.8989 63.5733 56.7152 64.3896C57.5315 65.2058 57.9914 66.3122 57.9942 67.4666V71.0132C57.9943 71.1195 57.9735 71.2248 57.933 71.3231C57.8924 71.4214 57.8329 71.5108 57.7578 71.586C57.6826 71.6613 57.5934 71.7211 57.4952 71.7618C57.397 71.8026 57.2917 71.8237 57.1854 71.8237H32.9757C32.761 71.8237 32.5552 71.7385 32.4034 71.5867C32.2516 71.4349 32.1663 71.229 32.1663 71.0144V67.4666C32.1691 66.3122 32.629 65.2058 33.4453 64.3896C34.2616 63.5733 35.3679 63.1134 36.5223 63.1106H36.5241ZM37.6758 23.774C38.9616 24.0292 40.1192 24.7223 40.9513 25.7351C41.7835 26.748 42.2388 28.0181 42.2397 29.329C42.2406 30.6399 41.787 31.9105 40.9562 32.9245C40.1255 33.9385 38.9688 34.6332 37.6834 34.8902C36.3979 35.1472 35.0631 34.9506 33.9064 34.3339C32.7496 33.7173 31.8423 32.7186 31.3392 31.5082C30.836 30.2977 30.768 28.9502 31.1468 27.6952C31.5256 26.4403 32.3277 25.3554 33.4166 24.6254C34.0353 24.2096 34.7301 23.9203 35.4611 23.7742C36.1921 23.6281 36.9448 23.628 37.6758 23.774ZM32.5781 23.2464C34.1836 22.1997 36.1367 21.8276 38.0146 22.2106C39.8925 22.5937 41.5439 23.7011 42.6111 25.293C43.6783 26.8849 44.0754 28.8331 43.7164 30.7158C43.3574 32.5984 42.2712 34.2638 40.6931 35.3513C40.656 35.3813 40.6163 35.4079 40.5744 35.4308C38.9796 36.4789 37.0371 36.8591 35.1648 36.4896C33.2925 36.12 31.6401 35.0303 30.563 33.4549C30.5331 33.4178 30.5067 33.3781 30.4841 33.3362C29.4358 31.7415 29.0554 29.7989 29.4249 27.9266C29.7943 26.0543 30.884 24.4018 32.4594 23.3248C32.4967 23.2952 32.5364 23.2694 32.5781 23.2464ZM36.3217 28.6853V27.2553H37.3073C37.5586 27.2512 37.8027 27.3385 37.9945 27.5009C38.5368 27.9756 38.0609 28.6877 37.3073 28.6877L36.3217 28.6853ZM35.5124 25.6371H37.3073C39.5728 25.6371 40.7192 28.1934 39.0625 29.6537C38.5755 30.0757 37.9517 30.3064 37.3073 30.3029H36.3217V32.2313C36.3247 32.3394 36.3059 32.447 36.2666 32.5477C36.2272 32.6484 36.1681 32.7403 36.0927 32.8178C36.0172 32.8952 35.9271 32.9568 35.8274 32.9989C35.7278 33.0409 35.6208 33.0626 35.5127 33.0626C35.4045 33.0626 35.2975 33.0409 35.1979 32.9989C35.0983 32.9568 35.0081 32.8952 34.9327 32.8178C34.8572 32.7403 34.7981 32.6484 34.7588 32.5477C34.7194 32.447 34.7007 32.3394 34.7036 32.2313V26.4459C34.7036 26.2314 34.7888 26.0256 34.9404 25.8738C35.0921 25.7221 35.2978 25.6373 35.5124 25.6371ZM57.494 31.4059L58.3128 30.2417C58.436 30.0665 58.6238 29.9474 58.8349 29.9106C59.0459 29.8738 59.2629 29.9224 59.4382 30.0456C59.6134 30.1689 59.7325 30.3566 59.7693 30.5677C59.8061 30.7787 59.7575 30.9957 59.6343 31.171L57.3765 34.3871C57.3051 34.5047 57.2048 34.6021 57.0852 34.67C56.9655 34.738 56.8305 34.7742 56.6929 34.7753C56.5553 34.7763 56.4198 34.7422 56.2991 34.6761C56.1784 34.6101 56.0766 34.5142 56.0034 34.3977L53.7076 31.2748C53.5856 31.1019 53.5363 30.8879 53.5704 30.679C53.6045 30.4701 53.7192 30.2829 53.89 30.1578C54.0607 30.0326 54.2737 29.9795 54.4832 30.0099C54.6927 30.0402 54.8819 30.1516 55.0101 30.3201L55.8776 31.5009V24.7127C55.8747 24.6046 55.8934 24.497 55.9328 24.3963C55.9721 24.2956 56.0313 24.2037 56.1067 24.1263C56.1821 24.0488 56.2723 23.9872 56.3719 23.9451C56.4715 23.9031 56.5785 23.8814 56.6867 23.8814C56.7948 23.8814 56.9018 23.9031 57.0015 23.9451C57.1011 23.9872 57.1913 24.0488 57.2667 24.1263C57.3421 24.2037 57.4012 24.2956 57.4406 24.3963C57.4799 24.497 57.4987 24.6046 57.4957 24.7127V31.4059H57.494ZM50.0459 31.4059L50.863 30.2417C50.9232 30.1532 51.0005 30.0775 51.0903 30.019C51.1801 29.9606 51.2806 29.9206 51.386 29.9014C51.4914 29.8822 51.5996 29.8842 51.7042 29.9072C51.8088 29.9302 51.9078 29.9738 51.9954 30.0354C52.0831 30.097 52.1575 30.1755 52.2145 30.2662C52.2715 30.3569 52.3099 30.458 52.3275 30.5637C52.345 30.6694 52.3413 30.7775 52.3167 30.8818C52.292 30.986 52.2469 31.0843 52.1838 31.171L49.929 34.3871C49.8575 34.5047 49.7572 34.6021 49.6375 34.67C49.5178 34.7379 49.3828 34.7741 49.2452 34.7752C49.1075 34.7763 48.9719 34.7422 48.8512 34.6761C48.7305 34.61 48.6286 34.5142 48.5554 34.3977L46.2602 31.2748C46.1975 31.1893 46.1522 31.0923 46.127 30.9894C46.1018 30.8864 46.0972 30.7795 46.1133 30.6747C46.1294 30.5699 46.166 30.4694 46.221 30.3787C46.276 30.2881 46.3483 30.2092 46.4337 30.1465C46.5192 30.0838 46.6162 30.0386 46.7192 30.0134C46.8221 29.9882 46.9291 29.9835 47.0338 29.9996C47.1386 30.0157 47.2392 30.0523 47.3298 30.1073C47.4204 30.1623 47.4994 30.2346 47.562 30.3201L48.4296 31.5009V24.7127C48.4296 24.498 48.5148 24.2921 48.6666 24.1404C48.8184 23.9886 49.0243 23.9033 49.2389 23.9033C49.4536 23.9033 49.6594 23.9886 49.8112 24.1404C49.963 24.2921 50.0483 24.498 50.0483 24.7127L50.0459 31.4059Z" fill="#3B82F6"/>
</svg>
