<svg width="90" height="90" viewBox="0 0 90 90" fill="none" xmlns="http://www.w3.org/2000/svg">
<circle cx="45.0835" cy="45.1219" r="44.6364" fill="white"/>
<path d="M53.5297 17.8062V15.9224C53.5297 15.402 53.1082 14.9805 52.5878 14.9805C52.0674 14.9805 51.6459 15.402 51.6459 15.9224V17.8062C51.6459 18.3266 52.0674 18.7481 52.5878 18.7481C53.1082 18.7481 53.5297 18.3266 53.5297 17.8062Z" fill="#3B82F6"/>
<path d="M56.6857 23.7393C56.8694 23.744 57.0484 23.6946 57.2038 23.598L58.805 22.5148C59.0475 22.3947 59.2288 22.1757 59.2995 21.9143C59.3678 21.653 59.323 21.3727 59.1723 21.1467C59.0216 20.9207 58.7814 20.7723 58.513 20.737C58.2445 20.6993 57.9737 20.7817 57.7688 20.9607L56.1205 22.0439C55.7602 22.2676 55.593 22.7056 55.7131 23.1129C55.8356 23.5203 56.2147 23.7958 56.6386 23.7864L56.6857 23.7393Z" fill="#3B82F6"/>
<path d="M46.7016 21.4318C47.0501 21.4365 47.3727 21.2481 47.5423 20.942C47.7094 20.6359 47.6953 20.2638 47.5022 19.9718L46.419 18.3234C46.2942 18.0997 46.0823 17.9349 45.8327 17.8713C45.5854 17.8078 45.3217 17.8478 45.1027 17.982C44.8837 18.1162 44.7307 18.3352 44.6765 18.5872C44.6224 18.8368 44.6742 19.1005 44.8178 19.3124L45.901 21.0079C46.0776 21.2763 46.379 21.4365 46.7016 21.4318Z" fill="#3B82F6"/>
<path d="M63.4203 61.1329C63.4203 63.6455 59.6527 63.6455 59.6527 61.1329C59.6527 58.6204 63.4203 58.6204 63.4203 61.1329Z" fill="#3B82F6"/>
<path d="M37.9888 64.4297C37.9888 61.0012 35.9236 57.9096 32.7565 56.5979C29.587 55.2863 25.9416 56.0115 23.5165 58.4346C21.0935 60.86 20.3682 64.505 21.6798 67.6746C22.9914 70.8417 26.0832 72.9069 29.5116 72.9069C34.1928 72.9069 37.9888 69.1106 37.9888 64.4297ZM22.9183 64.4297C22.9183 61.7641 24.5243 59.3599 26.9873 58.3382C29.4527 57.3186 32.2879 57.8814 34.1741 59.7675C36.0604 61.6537 36.6231 64.4888 35.6035 66.9543C34.5815 69.4174 32.1773 71.0234 29.512 71.0234C25.8715 71.0234 22.9183 68.0705 22.9183 64.4297Z" fill="#3B82F6"/>
<path d="M29.6061 69.1381C30.1077 69.1122 30.501 68.6978 30.501 68.1962H30.9719C31.4735 68.1703 31.8667 67.7559 31.8667 67.2543V64.4286C31.8408 63.927 31.4264 63.5338 30.9248 63.5338H29.041V62.5919H30.9248C31.4452 62.5777 31.8573 62.1468 31.8432 61.6264C31.829 61.106 31.3981 60.6939 30.8777 60.7081H30.4067C30.3808 60.2065 29.9664 59.8132 29.4648 59.8132H29.4178C28.9162 59.8391 28.5229 60.2536 28.5229 60.7551H28.052C27.5504 60.781 27.1572 61.1955 27.1572 61.697V64.5227C27.1501 64.5863 27.1501 64.6475 27.1572 64.7111C27.2584 65.1044 27.5999 65.3893 28.0048 65.4176H29.9828V66.3595H28.099C27.5786 66.3595 27.1571 66.781 27.1571 67.3014C27.1571 67.8218 27.5786 68.2433 28.099 68.2433H28.617C28.617 68.4929 28.7159 68.7331 28.8926 68.9097C29.0692 69.0863 29.3093 69.1852 29.559 69.1852L29.6061 69.1381Z" fill="#3B82F6"/>
<path d="M49.8571 26.8959C49.8571 26.6369 49.7512 26.3897 49.5651 26.2131C49.3768 26.0341 49.1272 25.9423 48.8682 25.954L31.8199 26.6134C31.4784 26.6252 31.1723 26.8206 31.0146 27.122C30.8592 27.4258 30.878 27.7884 31.0664 28.0733C34.0334 32.7829 34.7398 38.7637 34.834 42.2962H33.8921C32.7053 42.2892 31.5844 42.8496 30.878 43.8033C30.2728 44.6557 29.9597 45.68 29.9832 46.7232C29.9832 46.8645 29.9832 47.0058 30.0303 47.147C30.0232 47.2106 30.0232 47.2718 30.0303 47.3354V54.0701C30.6661 54.1054 31.2971 54.1996 31.9141 54.3527V50.2554C32.4721 50.5803 33.1056 50.7593 33.7508 50.7734H59.4646C59.6059 50.7734 63.0909 50.9147 63.4206 56.5662L61.6309 56.3778C59.003 56.2483 56.7684 58.271 56.6389 60.8989C56.5094 63.5268 58.5321 65.7615 61.16 65.891H61.631L63.4677 65.7026V71.4953C63.4677 71.9945 63.2699 72.4749 62.9167 72.8281C62.5635 73.1813 62.0831 73.3791 61.5839 73.3791H34.7398C33.7626 73.9583 32.6959 74.3728 31.5844 74.6035C32.2202 75.0439 32.9785 75.2746 33.7508 75.2629H61.5371C62.5355 75.2629 63.4939 74.8649 64.2004 74.1585C64.9068 73.4521 65.3047 72.4937 65.3047 71.4953V65.7026C65.3118 65.639 65.3118 65.5778 65.3047 65.5142H65.9641C66.9296 65.4176 67.6642 64.6005 67.6595 63.6304V58.6854C67.6642 57.7152 66.9296 56.8982 65.9641 56.8016H65.3047V56.4248C65.3306 56.3495 65.3471 56.2694 65.3518 56.1894V46.5346C65.3565 46.4875 65.3565 46.4404 65.3518 46.3933C65.2953 46.0072 65.2011 45.6304 65.0693 45.2631C64.6431 44.1799 63.8165 43.3039 62.7616 42.8141C64.53 41.2364 66.4915 39.8895 68.6014 38.811C68.8463 38.6933 69.0276 38.4743 69.0983 38.2129C69.1713 37.9516 69.1265 37.6713 68.9782 37.4453C65.2106 31.6055 55.5558 25.2949 55.132 25.0592C54.8683 24.8779 54.5292 24.8426 54.2349 24.9674C53.9405 25.0922 53.7286 25.3559 53.6721 25.6715C53.2011 28.4501 51.7412 31.4642 49.9986 34.1959L49.8571 26.8959ZM65.7751 63.5828L61.4424 64.0067C59.8435 64.0844 58.4824 62.8505 58.4047 61.2516C58.327 59.6528 59.5609 58.2917 61.1598 58.214H61.4423L65.7751 58.6378L65.7751 63.5828ZM63.4204 46.6286V51.0084L63.0436 50.5846C62.1041 49.5909 60.8278 48.9857 59.4644 48.8891H33.7506C32.9123 48.8962 32.1753 48.3334 31.961 47.5234C31.8974 47.262 31.8644 46.9936 31.8668 46.7228C31.8503 46.0658 32.0481 45.4206 32.4319 44.8861C32.7828 44.4363 33.322 44.1749 33.8919 44.1796H34.7867C34.7867 44.8861 34.7396 45.3099 34.7396 45.3099C34.742 45.4064 34.7561 45.5006 34.7867 45.5925H34.6925C34.1721 45.5925 33.7506 46.014 33.7506 46.5344C33.7506 47.0548 34.1721 47.4763 34.6925 47.4763H60.1242C60.6446 47.5163 61.0967 47.1254 61.1367 46.605C61.1768 46.0846 60.7859 45.6325 60.2655 45.5925C60.5598 45.1145 60.8919 44.6576 61.2545 44.2267C62.1517 44.4033 62.8958 45.025 63.2324 45.8751C63.3196 46.12 63.3827 46.3719 63.4204 46.6286ZM55.1787 27.3667C57.6747 29.1092 63.6555 33.489 66.7172 37.5863C64.6921 38.7166 60.0296 41.6365 58.1458 45.5923H36.6234V45.451C36.6704 45.0272 37.3769 35.891 33.4209 28.4498L47.9735 27.8846L48.0677 35.7496C48.0818 36.0298 48.2208 36.2888 48.4445 36.456L47.6909 37.4922C47.4837 36.4278 46.8762 35.4859 45.9955 34.8548C44.7758 34.0024 43.2711 33.6633 41.8041 33.9129C38.9313 34.3839 36.8591 36.7857 37.2358 39.2817C37.4148 40.4073 38.0435 41.4104 38.9783 42.0604C39.9297 42.7268 41.067 43.0729 42.2279 43.0494L43.1227 42.9552L42.9343 43.1435C42.5694 43.5203 42.5811 44.1208 42.9579 44.4858C43.3346 44.8508 43.9351 44.839 44.3001 44.4622C46.1368 42.5313 47.8511 40.485 49.4335 38.34C48.727 40.318 49.6219 42.8141 51.647 44.3211C52.5676 45.0276 53.6885 45.4255 54.8494 45.4514L55.6971 45.3572C56.7167 45.1641 57.6068 44.5471 58.1461 43.6618C59.3705 41.6367 58.5228 38.7168 56.2623 37.0211C55.1179 36.1216 53.6485 35.7472 52.212 35.985C51.6257 36.1051 51.0771 36.3641 50.6108 36.7385C52.5417 33.8186 54.3781 30.5225 55.1787 27.3667ZM42.8866 41.1182C41.9165 41.2901 40.9157 41.0711 40.108 40.506C39.5876 40.1575 39.2297 39.6135 39.119 38.999C38.8835 37.4919 40.2493 36.079 42.1331 35.7494H42.7925C43.5507 35.74 44.2925 35.9708 44.9117 36.4088C45.4439 36.7667 45.8019 37.3294 45.9007 37.9629C46.0891 39.3758 44.7704 40.8356 42.8866 41.1182ZM51.3634 38.6222C51.6295 38.1748 52.0769 37.8663 52.5879 37.7745H53.0588C53.8124 37.7981 54.5376 38.0618 55.131 38.528C56.591 39.6112 57.2503 41.495 56.5439 42.6724C56.2778 43.1198 55.8304 43.4283 55.3195 43.5201C54.4035 43.6355 53.4804 43.3623 52.7763 42.7666C51.3163 41.6834 50.6571 39.7996 51.3634 38.6222Z" fill="#3B82F6"/>
</svg>
