<svg width="33" height="33" viewBox="0 0 33 33" fill="none" xmlns="http://www.w3.org/2000/svg">
<path d="M27.6868 16.5H13.2361M24.6445 21.0634L29.2079 16.5L24.6445 11.9366M17.0389 8.89441V7.37329C17.0389 6.56644 16.7184 5.79263 16.1479 5.2221C15.5774 4.65157 14.8036 4.33105 13.9967 4.33105H6.39111C5.58426 4.33105 4.81046 4.65157 4.23993 5.2221C3.6694 5.79263 3.34888 6.56644 3.34888 7.37329V25.6267C3.34888 26.4336 3.6694 27.2074 4.23993 27.7779C4.81046 28.3484 5.58426 28.6689 6.39111 28.6689H13.9967C14.8036 28.6689 15.5774 28.3484 16.1479 27.7779C16.7184 27.2074 17.0389 26.4336 17.0389 25.6267V24.1056" stroke="#FF0000" stroke-width="2" stroke-linecap="round" stroke-linejoin="round"/>
</svg>
