<svg width="178" height="63" viewBox="0 0 178 63" fill="none" xmlns="http://www.w3.org/2000/svg">
<path d="M22.9865 2.13517C29.0203 0.131095 41.0306 0.100671 47.4152 1.45255C51.9503 2.41275 55.2411 4.03666 57.381 6.79825L58.4591 8.59415L58.9152 9.30509C59.7303 10.8036 62.9161 16.8667 61.8878 18.0209C61.1104 18.8926 57.8398 19.8453 56.5011 20.6244C49.1729 24.8903 48.034 32.5869 49.4201 38.5111C50.5338 43.2754 53.7113 47.9491 57.7599 51.9897C58.0222 52.256 58.431 52.5878 58.5939 52.8793C60.597 54.7116 62.4559 56.6181 64.3605 58.4936C73.6961 48.8052 80.0958 44.3537 79.7501 32.0541C79.8607 32.1516 79.9034 32.202 79.9591 32.2367C79.9034 32.202 79.8607 32.1515 79.7501 32.0541C79.4546 31.247 79.3412 30.3812 79.1603 29.558C77.9762 25.5878 74.7557 20.8955 68.7833 19.0385C67.727 18.71 65.8285 18.5891 65.1701 17.9438C64.6504 17.435 64.6265 16.5404 64.922 15.9799C65.0959 15.6507 65.4303 15.3598 65.9621 15.2455C67.3743 14.9421 69.6386 15.7641 70.8488 16.227C76.7167 18.4704 80.1164 22.7632 81.7648 26.8949C82.1847 27.8968 82.4644 28.9025 82.7023 29.9203L82.9298 30.9418C83.0414 31.577 83.1199 32.2157 83.1662 32.8539C83.8034 42.293 77.6808 50.3171 69.7052 57.9027C68.5915 58.9622 66.5547 61.3194 65.3224 62.1215C64.9296 62.3777 64.6211 62.4759 64.0685 62.4789C63.5016 62.2528 63.1254 61.9654 62.7374 61.6176C60.9242 59.9933 59.2588 58.2494 57.5792 56.5639C49.0638 48.0223 43.4299 39.7724 46.1447 29.2524C47.2131 25.1143 49.7871 20.797 54.5714 17.8442C55.6982 17.1484 56.9984 16.5713 58.2628 15.9848C57.7251 14.6628 57.1337 13.3497 56.4904 12.0473L55.4279 10.1469L54.5939 8.77384C52.6982 6.53476 49.7884 5.29844 46.0333 4.59806C39.6509 3.4077 29.4488 3.4991 23.5597 5.60001C19.1723 7.1651 17.5604 10.246 16.3009 13.1879C15.9924 13.9093 15.6939 15.4792 14.6701 15.9184C14.2791 16.0862 13.8769 16.1119 13.4367 16.0238C12.0507 15.7467 10.8445 14.2217 10.3039 13.3959C10.0729 13.043 9.87878 12.6732 9.71303 12.3022L9.55678 11.9311C9.45789 11.5552 9.40791 10.9646 9.1183 10.6293C8.82784 10.2931 8.48115 10.326 7.96498 10.2758C6.39942 10.4967 4.66486 10.8639 3.70424 11.7611C3.35537 12.0869 3.27524 12.3912 3.43276 12.7797C3.53275 13.0261 3.68648 13.2309 3.96694 13.4076C5.79846 13.611 7.4443 13.917 8.86342 14.7397L9.32143 15.0209C10.445 15.7204 11.8639 16.7105 11.8595 17.6596C11.8531 18.8653 9.35627 20.2312 8.59584 21.3988C7.49651 23.0872 7.07059 25.0456 6.76967 26.8539L6.56655 28.4242C6.40763 30.9474 5.99321 33.7862 6.69448 36.2738C7.68041 36.6236 9.40614 36.9701 9.74135 37.6928C10.2713 38.8349 9.23439 43.7565 10.6837 44.1967C10.7699 44.2227 10.8693 44.2247 10.9621 44.2377C14.6489 44.0759 18.5287 44.2374 22.2335 44.2143C22.4476 43.9539 22.6207 43.6711 22.8097 43.4027L22.7472 43.1606C22.4606 41.9099 22.5276 40.1288 22.7472 38.9291C22.7452 38.6691 22.7946 38.4413 22.8888 38.2309C23.0717 37.8223 23.426 37.4801 23.9162 37.1L24.4093 37.0697C27.5479 36.9261 40.3222 36.9105 41.8966 37.1479C42.6434 37.5791 42.9296 38.0435 42.9728 38.6908C43.0019 39.124 42.8439 39.7109 42.3546 40.0346C42.0753 40.2195 41.8571 40.2784 41.4894 40.3608C39.6662 40.5527 37.6746 40.4702 35.8283 40.4672L26.2423 40.4428C26.2244 41.4124 26.3749 42.5232 26.133 43.4906L26.0792 43.682C26.0863 44.6972 25.5219 46.0123 24.379 46.727C23.8053 47.0866 23.0951 47.3231 22.3205 47.4457C20.3635 47.7533 14.795 47.5751 12.5705 47.56C10.913 47.5489 9.24295 47.3771 8.06264 46.557C5.97619 45.1056 6.61926 41.7482 6.6476 39.9369C5.21887 39.3952 4.37821 38.7229 3.78725 37.7231C1.94128 34.6012 3.30881 24.856 4.7267 21.4565C5.25586 20.1879 6.29378 18.9407 7.1476 17.7484C7.04839 17.491 6.8489 17.3844 6.57729 17.2563L6.28237 17.1147C5.16471 16.9179 3.26926 16.9839 2.36635 16.5678C2.13084 16.4462 1.89324 16.3196 1.6935 16.1733C0.258367 15.1211 -0.167229 13.0235 0.0558039 11.6752C0.277623 10.2928 1.35109 9.02531 3.0353 8.15763C5.23628 7.02011 7.69539 6.85703 10.3839 7.05704C11.4171 7.3927 11.7336 7.73697 12.0783 8.44767C12.3761 9.06036 12.5152 9.73956 12.6476 10.3988L12.7833 11.0483L13.1144 11.5678L13.297 11.5248C13.497 11.1677 13.6642 10.8061 13.839 10.4438C15.4713 7.07319 17.9237 3.81684 22.9865 2.13517ZM63.4816 24.4125C64.7066 24.349 65.8588 24.4847 66.9904 24.7963C69.7372 25.5531 71.4897 27.2857 72.5099 29.0277C74.4093 32.2732 74.3567 36.2485 72.0812 39.4145C70.6529 41.4015 68.6544 42.6396 65.4552 43.4096C63.8576 43.4849 62.587 43.3433 61.1642 42.8481C58.1319 41.7907 56.4515 39.6695 55.5861 37.6C54.2274 34.3476 54.6646 30.4933 57.3107 27.5483C58.7601 25.9353 60.6461 24.8856 63.4816 24.4125ZM66.5187 27.9447C65.4435 27.5649 64.5242 27.5473 63.3234 27.6098C61.3707 28.0389 60.1379 28.8932 59.2414 30.0795C57.6654 32.1681 57.5711 34.7872 58.7531 36.9633C59.3994 38.1542 60.5196 39.3752 62.3537 39.9311C63.2602 40.2054 64.3523 40.2932 65.3331 40.1625C67.1582 39.8026 68.3123 39.0798 69.2208 38.0014C70.9334 35.9672 71.1291 33.335 70.0861 31.144C69.478 29.8675 68.389 28.6058 66.5187 27.9447ZM12.0011 24.7846C13.3791 24.5008 22.6818 24.6938 24.7404 24.7543C26.3787 25.832 27.4605 27.9803 27.4455 29.5072C27.4422 29.8297 27.1274 30.1229 26.8742 30.3881L26.6779 30.4233C24.4507 30.7673 16.1954 30.5392 13.8566 30.4408C13.4851 30.2238 13.1669 29.9931 12.8546 29.7494L12.5421 29.5004C12.0133 28.5101 10.5618 26.2782 11.2951 25.2943C11.4508 25.0853 11.6406 24.8588 12.0011 24.7846ZM30.8019 25.9828C32.9497 25.9715 41.4202 25.7155 42.7238 26.1156C43.4583 26.3416 43.6798 26.7724 43.924 27.2387C44.1823 27.7331 44.0205 28.2193 43.6466 28.6703C43.3531 29.0258 43.0546 29.1899 42.4445 29.309C39.9062 29.306 32.4759 29.5911 30.5441 29.2455C30.108 29.1675 29.885 29.0025 29.674 28.7572C29.279 28.2987 29.0379 27.6409 29.2892 27.1303C29.5827 26.5367 29.9518 26.258 30.8019 25.9828ZM24.633 6.82071C30.5943 4.98719 40.7187 4.83704 46.9103 6.27482C49.8342 6.95368 52.2925 8.06473 53.6525 9.91056L53.9914 10.4799L54.589 11.5873L54.674 11.7387C54.9413 12.2759 55.2483 12.8164 55.4494 13.3656C55.7559 14.0909 56.0424 14.8228 56.379 15.5424C52.6905 15.5342 48.9864 15.5643 45.296 15.518L43.715 15.4926C39.1377 15.587 34.5082 15.4985 29.9249 15.4965C25.5426 15.5654 21.1511 15.5407 16.7658 15.5902C17.398 14.314 17.9416 13.0161 18.6271 11.7514C19.8182 9.55295 21.2256 7.86846 24.633 6.82071ZM10.5695 10.4535C10.4902 10.5732 10.4305 10.6753 10.3839 10.7797L10.465 10.6225C10.4956 10.569 10.5299 10.5133 10.5695 10.4535Z" fill="#3B82F6"/>
<path d="M93.5045 40V12.12H98.6645V35.36H110.544V40H93.5045ZM122.304 40.4C120.384 40.4 118.678 39.96 117.184 39.08C115.691 38.2 114.504 36.9867 113.624 35.44C112.771 33.8667 112.344 32.0933 112.344 30.12C112.344 28.12 112.771 26.36 113.624 24.84C114.478 23.2933 115.651 22.08 117.144 21.2C118.664 20.32 120.384 19.88 122.304 19.88C124.198 19.88 125.891 20.32 127.384 21.2C128.878 22.08 130.051 23.2933 130.904 24.84C131.758 26.36 132.184 28.12 132.184 30.12C132.184 32.0933 131.758 33.8533 130.904 35.4C130.051 36.9467 128.878 38.1733 127.384 39.08C125.891 39.96 124.198 40.4 122.304 40.4ZM122.304 36.04C123.318 36.04 124.184 35.8 124.904 35.32C125.651 34.84 126.211 34.16 126.584 33.28C126.984 32.4 127.184 31.3467 127.184 30.12C127.184 28.8667 126.984 27.8133 126.584 26.96C126.211 26.08 125.651 25.4133 124.904 24.96C124.184 24.48 123.318 24.24 122.304 24.24C121.264 24.24 120.371 24.48 119.624 24.96C118.878 25.4133 118.304 26.08 117.904 26.96C117.504 27.8133 117.304 28.8667 117.304 30.12C117.304 31.3467 117.504 32.4 117.904 33.28C118.304 34.16 118.878 34.84 119.624 35.32C120.371 35.8 121.264 36.04 122.304 36.04ZM144.475 48.56C141.542 48.56 139.222 48.04 137.515 47C135.835 45.96 134.995 44.52 134.995 42.68C134.995 42.52 135.008 42.32 135.035 42.08C135.062 41.8667 135.102 41.6533 135.155 41.44L140.675 38L141.915 39.4L139.395 42.48C139.368 42.56 139.355 42.6267 139.355 42.68C139.355 42.7333 139.355 42.7867 139.355 42.84C139.355 43.5867 139.822 44.16 140.755 44.56C141.688 44.96 142.928 45.16 144.475 45.16C145.782 45.16 146.782 44.9867 147.475 44.64C148.168 44.32 148.515 43.84 148.515 43.2C148.515 42.8533 148.422 42.5733 148.235 42.36C148.048 42.1467 147.742 41.9733 147.315 41.84C146.888 41.7067 146.328 41.5867 145.635 41.48C144.968 41.3733 144.155 41.2533 143.195 41.12C141.968 40.9867 140.768 40.7333 139.595 40.36C138.422 40.0133 137.448 39.4933 136.675 38.8C135.902 38.08 135.515 37.1333 135.515 35.96C135.515 34.92 135.875 33.9733 136.595 33.12C137.315 32.24 138.262 31.52 139.435 30.96L141.835 32.88C141.115 32.9867 140.568 33.2267 140.195 33.6C139.848 33.9733 139.675 34.4133 139.675 34.92C139.675 35.3467 139.848 35.6933 140.195 35.96C140.542 36.2 141.035 36.3867 141.675 36.52C142.315 36.6533 143.075 36.7733 143.955 36.88C145.315 37.0667 146.568 37.2667 147.715 37.48C148.888 37.6933 149.902 38 150.755 38.4C151.635 38.7733 152.302 39.2933 152.755 39.96C153.235 40.6267 153.475 41.4933 153.475 42.56C153.475 44.5067 152.688 45.9867 151.115 47C149.568 48.04 147.355 48.56 144.475 48.56ZM144.075 34.48C142.422 34.48 140.968 34.1733 139.715 33.56C138.488 32.92 137.528 32.0667 136.835 31C136.142 29.9067 135.795 28.6533 135.795 27.24C135.795 25.7733 136.155 24.4933 136.875 23.4C137.622 22.28 138.608 21.4133 139.835 20.8C141.088 20.1867 142.448 19.88 143.915 19.88C145.355 19.88 146.688 20.1867 147.915 20.8C149.168 21.4133 150.168 22.2933 150.915 23.44C151.688 24.56 152.075 25.88 152.075 27.4C152.075 28.84 151.728 30.0933 151.035 31.16C150.368 32.2 149.435 33.0133 148.235 33.6C147.035 34.1867 145.648 34.48 144.075 34.48ZM143.955 30.56C145.022 30.56 145.808 30.24 146.315 29.6C146.848 28.9333 147.115 28.1333 147.115 27.2C147.115 26.24 146.835 25.4667 146.275 24.88C145.715 24.2667 144.942 23.96 143.955 23.96C142.968 23.96 142.182 24.2667 141.595 24.88C141.035 25.4933 140.755 26.2667 140.755 27.2C140.755 28.1333 141.022 28.9333 141.555 29.6C142.088 30.24 142.888 30.56 143.955 30.56ZM150.715 24.44L147.155 22.12L151.715 18.48L154.235 21.56L150.715 24.44ZM165.625 40.4C163.705 40.4 161.998 39.96 160.505 39.08C159.011 38.2 157.825 36.9867 156.945 35.44C156.091 33.8667 155.665 32.0933 155.665 30.12C155.665 28.12 156.091 26.36 156.945 24.84C157.798 23.2933 158.971 22.08 160.465 21.2C161.985 20.32 163.705 19.88 165.625 19.88C167.518 19.88 169.211 20.32 170.705 21.2C172.198 22.08 173.371 23.2933 174.225 24.84C175.078 26.36 175.505 28.12 175.505 30.12C175.505 32.0933 175.078 33.8533 174.225 35.4C173.371 36.9467 172.198 38.1733 170.705 39.08C169.211 39.96 167.518 40.4 165.625 40.4ZM165.625 36.04C166.638 36.04 167.505 35.8 168.225 35.32C168.971 34.84 169.531 34.16 169.905 33.28C170.305 32.4 170.505 31.3467 170.505 30.12C170.505 28.8667 170.305 27.8133 169.905 26.96C169.531 26.08 168.971 25.4133 168.225 24.96C167.505 24.48 166.638 24.24 165.625 24.24C164.585 24.24 163.691 24.48 162.945 24.96C162.198 25.4133 161.625 26.08 161.225 26.96C160.825 27.8133 160.625 28.8667 160.625 30.12C160.625 31.3467 160.825 32.4 161.225 33.28C161.625 34.16 162.198 34.84 162.945 35.32C163.691 35.8 164.585 36.04 165.625 36.04Z" fill="#00296D"/>
</svg>
