<svg width="51" height="51" viewBox="0 0 51 51" fill="none" xmlns="http://www.w3.org/2000/svg">
<rect x="0.984863" y="0.194336" width="50" height="50" rx="8" fill="#3B82F6" fill-opacity="0.2"/>
<path d="M38.7849 13.4521H13.1849C11.4209 13.4521 9.98486 14.8881 9.98486 16.6522V33.7362C9.98486 35.5003 11.4209 36.9362 13.1849 36.9362H38.7849C40.5489 36.9362 41.9849 35.5003 41.9849 33.7362V16.6522C41.9849 14.8868 40.5489 13.4521 38.7849 13.4521ZM12.1182 16.6522C12.1182 16.0641 12.5955 15.5855 13.1849 15.5855H38.7849C39.3742 15.5855 39.8516 16.0641 39.8516 16.6522V29.0774C39.8516 29.6667 39.3742 30.144 38.7849 30.144H13.1849C12.5955 30.144 12.1182 29.6667 12.1182 29.0774V16.6522ZM38.7849 34.8015H13.1849C12.5955 34.8015 12.1182 34.3242 12.1182 33.7349V32.0802C12.4529 32.2002 12.8089 32.2762 13.1849 32.2762H38.7849C39.1609 32.2762 39.5169 32.1989 39.8516 32.0802V33.7335C39.8516 34.3242 39.3742 34.8015 38.7849 34.8015Z" fill="#3B82F6"/>
<path d="M25.9848 27.6199C28.6061 27.6199 30.7395 25.4866 30.7395 22.8651C30.7395 20.2438 28.6062 18.1104 25.9848 18.1104C23.3633 18.1104 21.23 20.2437 21.23 22.8651C21.23 25.4865 23.3633 27.6199 25.9848 27.6199ZM25.9848 20.2413C27.4301 20.2413 28.6061 21.4173 28.6061 22.8626C28.6061 24.3093 27.4301 25.4866 25.9848 25.4866C24.5394 25.4866 23.3634 24.3106 23.3634 22.8653C23.3634 21.42 24.5394 20.2413 25.9848 20.2413Z" fill="#3B82F6"/>
<path d="M16.1062 23.9322H17.1289C17.7182 23.9322 18.1956 23.4548 18.1956 22.8655C18.1956 22.2761 17.7182 21.7988 17.1289 21.7988H16.1062C15.5169 21.7988 15.0396 22.2761 15.0396 22.8655C15.0396 23.4535 15.5182 23.9322 16.1062 23.9322Z" fill="#3B82F6"/>
<path d="M34.8406 23.9322H35.8633C36.4526 23.9322 36.9299 23.4548 36.9299 22.8655C36.9299 22.2761 36.4526 21.7988 35.8633 21.7988H34.8406C34.2512 21.7988 33.7739 22.2761 33.7739 22.8655C33.7739 23.4535 34.2499 23.9322 34.8406 23.9322Z" fill="#3B82F6"/>
</svg>
