<svg width="51" height="51" viewBox="0 0 51 51" fill="none" xmlns="http://www.w3.org/2000/svg">
<rect x="0.984863" y="0.0966797" width="50" height="50" rx="8" fill="#3B82F6" fill-opacity="0.2"/>
<path d="M34.453 19.1699H17.5152C17.1167 20.5062 16.0604 21.561 14.7241 21.961V28.2321C16.0604 28.6306 17.1152 29.6869 17.5152 31.0232H34.453C34.8515 29.6869 35.9078 28.6321 37.2441 28.2321V21.961C35.9078 21.5625 34.853 20.5062 34.453 19.1699ZM25.9849 29.2438C23.6975 29.2438 21.8365 27.3831 21.8365 25.0955C21.8365 22.8079 23.6972 20.9471 25.9849 20.9471C28.2725 20.9471 30.1332 22.8079 30.1332 25.0955C30.1332 27.3831 28.2725 29.2438 25.9849 29.2438Z" fill="#3B82F6"/>
<path d="M27.7631 25.0961C27.7631 27.4665 24.2075 27.4665 24.2075 25.0961C24.2075 22.7258 27.7631 22.7258 27.7631 25.0961Z" fill="#3B82F6"/>
<path d="M38.4293 14.4297H13.5404C11.5789 14.4297 9.98486 16.0238 9.98486 17.9852V32.2075C9.98486 34.169 11.5789 35.763 13.5404 35.763H38.4293C40.3908 35.763 41.9849 34.169 41.9849 32.2075V17.9852C41.9849 16.0238 40.3908 14.4297 38.4293 14.4297ZM39.6145 29.2443C39.6145 29.8991 39.0841 30.4295 38.4293 30.4295C37.4486 30.4295 36.6515 31.2265 36.6515 32.2073C36.6515 32.8621 36.1212 33.3925 35.4663 33.3925H16.5034C15.8486 33.3925 15.3182 32.8621 15.3182 32.2073C15.3182 31.2265 14.5211 30.4295 13.5404 30.4295C12.8856 30.4295 12.3552 29.8991 12.3552 29.2443V20.948C12.3552 20.2932 12.8856 19.7628 13.5404 19.7628C14.5211 19.7628 15.3182 18.9658 15.3182 17.9851C15.3182 17.3302 15.8486 16.7999 16.5034 16.7999H35.4663C36.1212 16.7999 36.6515 17.3302 36.6515 17.9851C36.6515 18.9658 37.4486 19.7628 38.4293 19.7628C39.0841 19.7628 39.6145 20.2932 39.6145 20.948V29.2443Z" fill="#3B82F6"/>
</svg>
