<svg width="51" height="51" viewBox="0 0 51 51" fill="none" xmlns="http://www.w3.org/2000/svg">
<rect x="0.984863" y="0.804688" width="50" height="50" rx="8" fill="#3B82F6" fill-opacity="0.2"/>
<path fill-rule="evenodd" clip-rule="evenodd" d="M13.0948 27.2721C13.4257 26.6121 14.1008 26.1953 14.8391 26.1953H26.2035C26.9418 26.1953 27.6169 26.6121 27.9478 27.2721L29.2069 29.7836C29.3547 29.6862 29.5316 29.6295 29.7219 29.6295H31.292C31.8093 29.6295 32.2286 30.0488 32.2286 30.566C32.2286 31.0833 31.8093 31.5026 31.292 31.5026H30.0687L30.6443 32.6508C30.7804 32.9223 30.8513 33.2217 30.8513 33.5253V37.9807V37.988V41.0246C30.8513 41.4556 30.5018 41.805 30.0708 41.805H27.4998C27.0687 41.805 26.7193 41.4556 26.7193 41.0246V39.9319H14.3233V41.0246C14.3233 41.4556 13.9739 41.805 13.5428 41.805H10.9718C10.5408 41.805 10.1913 41.4556 10.1913 41.0246V37.9831V37.9807V33.5253C10.1913 33.2217 10.2622 32.9223 10.3982 32.6508L10.9739 31.5026H9.75055C9.23329 31.5026 8.81396 31.0833 8.81396 30.566C8.81396 30.0488 9.23329 29.6295 9.75055 29.6295H11.3207C11.5109 29.6295 11.6879 29.6862 11.8357 29.7836L13.0948 27.2721ZM11.5686 35.021C11.5686 34.4894 12.05 34.0875 12.5731 34.1823L14.4528 34.5232C14.7766 34.5819 15.012 34.8638 15.012 35.1928C15.012 35.5687 14.7073 35.8734 14.3314 35.8734H12.421C11.9502 35.8734 11.5686 35.4917 11.5686 35.021ZM26.5897 34.5232C26.266 34.5819 26.0306 34.8638 26.0306 35.1928C26.0306 35.5687 26.3353 35.8734 26.7112 35.8734H28.6216C29.0923 35.8734 29.474 35.4917 29.474 35.021C29.474 34.4894 28.9926 34.0875 28.4695 34.1823L26.5897 34.5232ZM17.7666 37.8246C17.7666 37.6091 17.9413 37.4343 18.1569 37.4343H22.8857C23.1012 37.4343 23.2759 37.6091 23.2759 37.8246V38.2929C23.2759 38.5084 23.1012 38.6831 22.8857 38.6831H18.1569C17.9413 38.6831 17.7666 38.5084 17.7666 38.2929V37.8246ZM14.5927 27.1319C14.3783 27.1319 14.1838 27.2573 14.0952 27.4525L12.6077 30.7305C12.4435 31.0923 12.708 31.5026 13.1052 31.5026H27.9374C28.3346 31.5026 28.5991 31.0923 28.4349 30.7305L26.9474 27.4525C26.8588 27.2573 26.6643 27.1319 26.4499 27.1319H14.5927Z" fill="#3B82F6"/>
<path fill-rule="evenodd" clip-rule="evenodd" d="M43.1555 16.4388C43.1555 19.9718 40.3939 22.8597 36.9116 23.0617V41.0242H38.4726V41.8047H36.9116H36.1311H34.5701V41.0242H36.1311V23.0617C32.6488 22.8597 29.8872 19.9718 29.8872 16.4388C29.8872 12.7749 32.8574 9.80469 36.5214 9.80469C40.1853 9.80469 43.1555 12.7749 43.1555 16.4388ZM42.7653 16.4388C42.7653 19.8873 39.9698 22.6827 36.5214 22.6827C33.0729 22.6827 30.2775 19.8873 30.2775 16.4388C30.2775 12.9904 33.0729 10.1949 36.5214 10.1949C39.9698 10.1949 42.7653 12.9904 42.7653 16.4388ZM36.5214 22.2925C39.7543 22.2925 42.375 19.6717 42.375 16.4388C42.375 13.2059 39.7543 10.5852 36.5214 10.5852C33.2885 10.5852 30.6677 13.2059 30.6677 16.4388C30.6677 19.6717 33.2885 22.2925 36.5214 22.2925ZM34.6832 12.9621V20.3413H35.5768V17.6462H37.191C37.7651 17.6462 38.2359 17.5417 38.6034 17.3327C38.9709 17.1213 39.2423 16.8379 39.4177 16.4823C39.5955 16.1268 39.6843 15.7317 39.6843 15.2969C39.6843 14.8622 39.5955 14.4682 39.4177 14.1151C39.24 13.762 38.9661 13.4822 38.5962 13.2756C38.2287 13.0666 37.7555 12.9621 37.1766 12.9621H34.6832ZM35.5768 16.8535H37.1621C37.5585 16.8535 37.8768 16.785 38.117 16.6481C38.3572 16.5112 38.5313 16.3262 38.6394 16.0932C38.7499 15.8578 38.8052 15.5924 38.8052 15.2969C38.8052 15.0015 38.7499 14.7373 38.6394 14.5042C38.5313 14.2712 38.356 14.0887 38.1134 13.9566C37.8708 13.8221 37.5489 13.7548 37.1477 13.7548H35.5768V16.8535Z" fill="#3B82F6"/>
</svg>
