<svg width="51" height="51" viewBox="0 0 51 51" fill="none" xmlns="http://www.w3.org/2000/svg">
<rect x="0.984863" y="0.902344" width="50" height="50" rx="8" fill="#3B82F6" fill-opacity="0.2"/>
<path d="M38.8617 21.7036C38.2546 19.5823 37.7108 17.461 37.1037 15.4006C36.6185 14.7349 35.3457 14.3692 34.5581 14.2497C28.7404 13.4011 23.2836 13.4011 17.5267 14.2497C16.6781 14.3716 15.4663 14.7349 14.9201 15.4006C14.313 17.5219 13.7083 19.5823 13.1621 21.7036C12.8598 21.4622 10.7994 24.8563 10.7994 24.8563C10.4361 25.6438 10.1337 26.6143 10.1337 28.1894C10.1337 31.2202 10.0728 34.2512 10.0728 37.2209C10.0728 37.828 10.558 38.1913 11.1041 38.1913H14.9834C15.5905 38.1913 16.0148 37.767 16.0148 37.2209V36.0091H36.0159V37.2209C36.0159 37.828 36.5011 38.1913 36.9863 38.1913H40.9266C41.4118 38.1913 41.897 37.767 41.897 37.2209C41.897 34.1901 41.897 31.1591 41.836 28.1894C41.836 26.6143 41.5337 25.5829 41.1703 24.8563C41.1657 24.8539 39.1641 21.4598 38.8617 21.7036ZM16.5563 16.1859C22.7981 15.096 29.1647 15.096 35.4065 16.1859C35.8917 17.9439 36.377 19.7019 36.8622 21.5208C29.7695 20.7332 22.1937 20.7332 15.1004 21.5208C15.6466 19.7628 16.0711 17.9439 16.5563 16.1859ZM15.5249 30.0058C14.435 30.0058 13.5864 29.0964 13.5864 27.9455C13.5864 26.8555 14.435 26.007 15.5249 26.007C16.6149 26.007 17.4634 26.8555 17.4634 27.9455C17.4658 29.0354 16.6172 30.0058 15.5249 30.0058ZM31.8903 33.0366H20.0722C19.587 33.0366 19.1627 32.6124 19.1627 32.1272C19.1627 31.642 19.587 31.2177 20.0722 31.2177H31.9515C32.4367 31.2177 32.861 31.642 32.861 32.1272C32.8 32.6733 32.4365 33.0366 31.8903 33.0366ZM36.4376 30.0058C35.3477 30.0058 34.3773 29.0964 34.3773 27.9455C34.3773 26.8555 35.2867 26.007 36.4376 26.007C37.5276 26.007 38.3761 26.8555 38.3761 27.9455C38.4371 29.0354 37.5885 30.0058 36.4376 30.0058Z" fill="#3B82F6"/>
<path d="M28.7405 16.7932C28.7405 16.308 28.3163 15.8838 27.8311 15.8838H24.2542C23.769 15.8838 23.3447 16.308 23.3447 16.7932C23.3447 17.2784 23.769 17.7027 24.2542 17.7027H27.8311C28.3163 17.7027 28.7405 17.2784 28.7405 16.7932Z" fill="#3B82F6"/>
<path d="M34.4364 18.489C34.3755 18.1866 34.2536 17.8233 34.195 17.5186C33.2856 17.3967 32.3151 17.2772 31.3471 17.1553L29.043 19.4594C30.9815 19.5203 32.9222 19.6422 34.8022 19.8227C34.6803 19.3984 34.5583 18.9742 34.4364 18.489Z" fill="#3B82F6"/>
</svg>
