<svg width="51" height="51" viewBox="0 0 51 51" fill="none" xmlns="http://www.w3.org/2000/svg">
<rect x="0.984863" y="0.902344" width="50" height="50" rx="8" fill="#3B82F6" fill-opacity="0.2"/>
<path fill-rule="evenodd" clip-rule="evenodd" d="M23.3371 18.7736H25.7561V22.2523C25.7561 22.6102 26.1685 22.7359 26.3221 22.4236L28.8972 17.1642C29.0114 16.9319 28.8654 16.6438 28.6345 16.6438H26.2155V13.1664C26.2155 12.8085 25.803 12.6829 25.6495 12.9951L23.0744 18.2546C22.9602 18.4868 23.1061 18.7749 23.3371 18.7749V18.7736Z" fill="#3B82F6"/>
<path fill-rule="evenodd" clip-rule="evenodd" d="M41.8575 25.5736C41.8575 23.4453 37.9714 23.8146 37.2758 24.3045C36.8138 22.6128 36.3164 20.5974 35.8163 18.8664C35.7287 18.5643 35.5384 18.3029 35.2744 18.1315C34.7515 17.7914 34.0205 17.6175 33.4709 17.5566C32.1713 17.3536 30.8717 17.2076 29.5708 17.1099C29.5581 17.2267 29.5328 17.3421 29.4795 17.45L28.9591 18.5136C30.3564 18.5757 31.7525 18.676 33.1448 18.8258L33.8758 18.9044C34.2667 18.9463 34.5878 19.2293 34.6792 19.6114L35.8379 24.7652L26.666 25.0673C26.2117 25.0825 25.7573 25.0825 25.3042 25.0673L16.2285 24.7652L17.3136 19.6227C17.4011 19.2357 17.7248 18.9463 18.1195 18.9031L18.8251 18.827C20.013 18.6988 21.2048 18.6036 22.3964 18.5389C22.3749 18.3447 22.4015 18.1468 22.4891 17.9678L22.9244 17.0781C21.4382 17.172 19.9508 17.3256 18.4583 17.5566C17.8758 17.6213 17.113 17.8142 16.5762 18.1975C16.3465 18.3625 16.1878 18.6075 16.1091 18.8791C15.6154 20.6076 15.1547 22.6167 14.694 24.3046C13.8348 23.6903 10.1123 23.6091 10.1123 25.5318C10.1123 27.1271 11.5426 27.0865 12.648 27.0865C12.3206 27.7008 12.0757 28.6399 12.0757 29.9903C12.0351 32.5667 12.0351 35.511 12.0351 38.128C12.0351 38.6192 12.4437 38.9872 12.8943 38.9872H16.1305C16.6052 38.9872 16.9897 38.6027 16.9897 38.128V36.7802H34.9378V38.128C34.9378 38.6192 35.3465 38.9872 35.797 38.9872H39.0333C39.5282 38.9872 39.9331 38.5837 39.9331 38.0874C39.9331 35.4794 39.8925 32.5528 39.8925 29.989C39.8519 28.6399 39.6057 27.6982 39.3201 27.0852C40.3824 27.0852 41.8559 27.1258 41.8559 25.5711L41.8575 25.5736ZM21.5679 31.5463C20.1465 31.611 17.6779 31.394 16.7032 31.3001C16.4595 31.2759 16.2615 31.0919 16.2209 30.8495C16.1232 30.253 16.0382 29.6578 15.943 29.0613C15.8884 28.7224 16.1448 28.4128 16.4887 28.4026C17.9102 28.362 19.2123 28.541 20.4216 28.9674C20.994 29.2948 21.4445 29.9091 21.8532 30.6046C22.0575 31.0551 22.0575 31.4232 21.5664 31.5463L21.5679 31.5463ZM36.0045 29.0473C35.9182 29.6438 35.8217 30.2403 35.738 30.8368C35.7024 31.0843 35.5057 31.2772 35.2557 31.3001C34.267 31.394 31.7884 31.6097 30.4023 31.5463C29.9112 31.4232 29.9112 31.0551 30.1155 30.6046C30.5242 29.9091 30.9747 29.2948 31.5471 28.9674C32.7223 28.5397 34.0511 28.3607 35.4547 28.4026C35.7923 28.4128 36.0511 28.7123 36.0029 29.0473L36.0045 29.0473Z" fill="#3B82F6"/>
</svg>
