<svg width="51" height="51" viewBox="0 0 51 51" fill="none" xmlns="http://www.w3.org/2000/svg">
<rect x="0.984863" y="0.610352" width="50" height="50" rx="8" fill="#3B82F6" fill-opacity="0.2"/>
<path d="M40.9969 24.6302H39.3729V22.6502C39.3729 22.6462 39.3689 22.6422 39.3689 22.6382C39.3609 20.8102 38.1009 19.2822 36.4049 18.8422V13.7702C36.4049 13.2262 35.9649 12.7822 35.4169 12.7822H13.9369C12.9129 12.7822 11.8969 13.2022 11.1409 13.9382C10.4049 14.6742 9.98486 15.6902 9.98486 16.7222V34.4982C9.98486 36.6702 11.7569 38.4382 13.9369 38.4382H35.4249C36.4809 38.4382 37.4729 38.0262 38.2169 37.2822C38.9649 36.5382 39.3729 35.5462 39.3729 34.4982V34.4942V32.5262H40.9969C41.5409 32.5262 41.9849 32.0822 41.9849 31.5382V25.6182C41.9849 25.0702 41.5449 24.6302 40.9969 24.6302ZM12.5289 15.3462C12.9089 14.9742 13.4249 14.7582 13.9369 14.7582H34.4369V18.7022H13.9369C12.8449 18.7022 11.9609 17.8142 11.9609 16.7262C11.9609 16.2102 12.1689 15.7022 12.5289 15.3462ZM37.4009 34.4982C37.4009 35.0182 37.1969 35.5102 36.8209 35.8862C36.4489 36.2582 35.9529 36.4662 35.4249 36.4662H13.9369C12.8449 36.4662 11.9609 35.5862 11.9609 34.5022V20.1222C12.5449 20.4622 13.2129 20.6742 13.9369 20.6742H35.4249C36.5129 20.6742 37.4009 21.5622 37.4009 22.6502V22.6542V24.6262H33.2329C32.1769 24.6262 31.1889 25.0382 30.4529 25.7742C29.7049 26.5062 29.2929 27.5022 29.2929 28.5702C29.2929 30.7502 31.0609 32.5222 33.2369 32.5222H37.4049V34.4902C37.4009 34.4942 37.4009 34.4942 37.4009 34.4982ZM40.0089 30.5502H33.2329C32.1489 30.5502 31.2649 29.6622 31.2649 28.5702C31.2649 28.0382 31.4649 27.5462 31.8409 27.1782C32.2169 26.8022 32.7009 26.6022 33.2329 26.6022H40.0129V30.5502H40.0089Z" fill="#3B82F6"/>
</svg>
