<svg width="51" height="51" viewBox="0 0 51 51" fill="none" xmlns="http://www.w3.org/2000/svg">
<rect x="0.984863" y="0.708008" width="50" height="50" rx="8" fill="#3B82F6" fill-opacity="0.2"/>
<path fill-rule="evenodd" clip-rule="evenodd" d="M25.9852 14.7349C28.8948 14.7349 31.6859 15.8912 33.7446 17.9484C35.8018 20.0069 36.958 22.7982 36.958 25.7078C36.958 28.6173 35.8017 31.4085 33.7446 33.4672C31.6861 35.5243 28.8947 36.6806 25.9852 36.6806C23.0756 36.6806 20.2845 35.5243 18.2258 33.4672C16.1686 31.4087 15.0123 28.6173 15.0123 25.7078C15.0123 22.7982 16.1686 20.0071 18.2258 17.9484C20.2843 15.8912 23.0756 14.7349 25.9852 14.7349ZM13.5184 35.7341L11.0646 35.2111C10.7742 35.1493 10.4892 35.3348 10.4273 35.6252C10.3668 35.9156 10.5524 36.2007 10.8414 36.2612L14.8683 37.119C15.0296 37.1648 15.2044 37.1325 15.3375 37.0303C15.472 36.9281 15.55 36.7695 15.55 36.6014V33.2347C15.55 32.9375 15.3093 32.6968 15.0122 32.6968C14.715 32.6968 14.4743 32.9375 14.4743 33.2347V35.2111C12.2612 32.5395 11.0538 29.1769 11.0605 25.708C11.0605 17.466 17.7429 10.7836 25.9849 10.7836C34.2268 10.7836 40.9092 17.466 40.9092 25.708C40.9092 33.95 34.2268 40.6324 25.9849 40.6324C25.6877 40.6324 25.4471 40.873 25.4471 41.1702C25.4471 41.4673 25.6877 41.708 25.9849 41.708C34.8213 41.708 41.9849 34.5444 41.9849 25.708C41.9849 16.8716 34.8213 9.70801 25.9849 9.70801C17.1485 9.70801 9.98487 16.8716 9.98487 25.708C9.98084 29.3559 11.2286 32.8944 13.5184 35.7341ZM24.3716 26.9931L21.9608 24.6213C21.4888 24.1493 20.7224 24.1493 20.2492 24.6213C19.7772 25.0946 19.7772 25.8596 20.2492 26.3329L24.3703 30.4162L31.7208 23.0657C32.186 22.5924 32.1833 21.8314 31.7141 21.3608C31.2435 20.8916 30.4825 20.8889 30.0092 21.3541L24.3701 26.9918L24.3716 26.9931ZM24.3648 25.4778L22.7151 23.8549C21.8182 22.9756 20.3796 22.9837 19.4935 23.8751C18.6075 24.7665 18.6075 26.2052 19.4922 27.0966L24.3744 31.933L32.4821 23.8267C33.3695 22.9325 33.3668 21.4899 32.4767 20.5984C31.5853 19.7084 30.1426 19.7056 29.2485 20.5931L24.3648 25.4778Z" fill="#3B82F6"/>
</svg>
