<svg width="51" height="50" viewBox="0 0 51 50" fill="none" xmlns="http://www.w3.org/2000/svg">
<rect x="0.984863" width="50" height="50" rx="8" fill="#3B82F6" fill-opacity="0.2"/>
<path d="M38.9367 19.6666H35.8891V13.5714H38.9367C39.3564 13.5714 39.6986 13.2291 39.6986 12.8095C39.6986 12.3899 39.3564 12.0476 38.9367 12.0476H35.8891V10.5461C35.8891 9.69344 35.1957 9 34.343 9H25.2227C25.2153 9 25.2034 9.00446 25.1959 9.00446C25.1811 9.00446 25.1617 9.00893 25.1468 9.00893C25.0977 9.01339 25.0516 9.02381 25.0055 9.03571C24.9906 9.04018 24.9757 9.04315 24.9593 9.05059C24.9028 9.07292 24.8447 9.0997 24.7912 9.13393H24.7867L15.6946 15.3884C13.5503 16.863 12.2705 19.2931 12.2705 21.8957V34.8705C12.2705 35.7321 12.9669 36.4285 13.8285 36.4285H14.5562V40.238C14.5562 40.6576 14.8985 40.9999 15.3181 40.9999C15.7377 40.9999 16.08 40.6576 16.08 40.238V36.4285H16.8077C17.6648 36.4285 18.3657 35.7321 18.3657 34.8705V28.802C18.3657 28.1576 18.7243 27.5788 19.3032 27.29L25.4014 24.238H34.3419C35.1946 24.238 35.888 23.5445 35.888 22.6919L35.8895 21.1904H38.9371C39.3568 21.1904 39.699 20.8481 39.699 20.4285C39.699 20.0089 39.3564 19.6666 38.9367 19.6666ZM18.6215 25.9256C17.5233 26.4747 16.8417 27.5758 16.8417 28.802V34.8706C16.8417 34.8899 16.8268 34.9048 16.8075 34.9048H13.8284C13.809 34.9048 13.7941 34.8899 13.7941 34.8706V21.8958C13.7941 19.7961 14.8268 17.8349 16.556 16.646L24.4607 11.2098V23.0044L18.6215 25.9256ZM32.6735 17.0952L29.626 20.9047C29.4786 21.0907 29.2524 21.1904 29.0322 21.1904C28.8641 21.1904 28.6974 21.1368 28.556 21.0222C28.2286 20.7588 28.1751 20.2797 28.4385 19.9523L30.495 17.3809H28.2703C27.9772 17.3809 27.7108 17.2127 27.5843 16.9508C27.4593 16.6874 27.4935 16.372 27.6751 16.1428L30.7227 12.3333C30.9861 12.0059 31.4652 11.9524 31.7926 12.2157C32.12 12.4791 32.1735 12.9583 31.9102 13.2857L29.8551 15.8571H32.0798C32.3729 15.8571 32.6393 16.0252 32.7658 16.2871C32.8908 16.5505 32.8566 16.866 32.6735 17.0952Z" fill="#3B82F6"/>
</svg>
