<svg width="25" height="19" viewBox="0 0 25 19" fill="none" xmlns="http://www.w3.org/2000/svg">
<path d="M15.2067 1.54811C15.2311 1.46688 15.2276 1.37983 15.1968 1.30082C15.1659 1.2218 15.1096 1.15536 15.0367 1.11207C14.9637 1.06946 14.8783 1.05298 14.7947 1.06534C14.7111 1.0777 14.6342 1.11817 14.5766 1.18008L8.60014 7.5546C8.55049 7.608 8.51744 7.67469 8.50501 7.74654C8.49259 7.81839 8.50132 7.89231 8.53014 7.95929C8.55897 8.02627 8.60665 8.08342 8.66737 8.12379C8.7281 8.16415 8.79925 8.18599 8.87216 8.18665H11.3544L10.0083 12.577C9.98388 12.6582 9.98737 12.7453 10.0182 12.8243C10.049 12.9033 10.1053 12.9698 10.1783 13.013C10.3283 13.0991 10.5183 13.073 10.6383 12.945L16.3988 6.57052C16.4485 6.51699 16.4816 6.45012 16.494 6.37809C16.5063 6.30605 16.4974 6.23198 16.4684 6.16492C16.4393 6.09787 16.3913 6.04074 16.3303 6.00052C16.2693 5.9603 16.1978 5.93874 16.1248 5.93847H13.6426L15.2067 1.54811Z" fill="#F2F2F2"/>
<path d="M7.727 0.0292973C6.99285 0.028938 6.27474 0.244081 5.66173 0.648047C5.04871 1.05201 4.56776 1.62703 4.2785 2.3018L3.0905 5.0738C2.97884 5.3373 2.77668 5.55223 2.5205 5.6798C1.7705 6.0548 1.238 6.7523 1.073 7.5728L0.5735 10.0913C0.524871 10.3333 0.500252 10.5795 0.5 10.8263V11.4458C0.5 12.6668 1.085 13.7603 2 14.4413V17.2793C2 17.4782 2.07902 17.669 2.21967 17.8096C2.36032 17.9503 2.55109 18.0293 2.75 18.0293H5.75C5.94891 18.0293 6.13968 17.9503 6.28033 17.8096C6.42098 17.669 6.5 17.4782 6.5 17.2793V15.2723C8.438 15.3443 10.6175 15.4043 12.5 15.4043C14.3825 15.4043 16.562 15.3443 18.5 15.2723V17.2793C18.5 17.4782 18.579 17.669 18.7197 17.8096C18.8603 17.9503 19.0511 18.0293 19.25 18.0293H22.25C22.4489 18.0293 22.6397 17.9503 22.7803 17.8096C22.921 17.669 23 17.4782 23 17.2793V14.4413C23.915 13.7603 24.5 12.6668 24.5 11.4458V10.8263C24.5 10.5783 24.4755 10.3333 24.4265 10.0913L23.924 7.5713C23.8436 7.16646 23.6714 6.78546 23.4208 6.45755C23.1701 6.12965 22.8476 5.86358 22.478 5.6798C22.2213 5.55252 22.0185 5.33756 21.9065 5.0738L20.7185 2.3018C20.4292 1.62703 19.9483 1.05201 19.3353 0.648047C18.7223 0.244081 18.0042 0.028938 17.27 0.0292973H7.7285H7.727ZM5.6585 2.8943C5.83189 2.48902 6.1205 2.14359 6.48851 1.90093C6.85651 1.65826 7.28769 1.52903 7.7285 1.5293H17.2715C17.7121 1.52933 18.1429 1.65869 18.5106 1.90134C18.8783 2.14399 19.1667 2.48925 19.34 2.8943L20.528 5.6648C20.78 6.25438 21.2335 6.73506 21.8075 7.0208C22.1405 7.1888 22.379 7.5008 22.4525 7.8668L22.9565 10.3853C22.9865 10.5313 23.001 10.6783 23 10.8263V11.4458C23.0022 12.0174 22.7839 12.5678 22.3905 12.9824C21.9971 13.3971 21.4589 13.644 20.888 13.6718C18.5555 13.7768 15.209 13.9043 12.5 13.9043C9.791 13.9043 6.4445 13.7783 4.112 13.6718C3.54083 13.6444 3.00228 13.3976 2.60855 12.9829C2.21483 12.5682 1.9963 12.0176 1.9985 11.4458V10.8263C1.9985 10.6783 2.0135 10.5313 2.0435 10.3853L2.546 7.8653C2.58145 7.68446 2.65807 7.51421 2.76993 7.36776C2.88178 7.22131 3.02586 7.10259 3.191 7.0208C3.7655 6.7358 4.2185 6.2543 4.4705 5.6648L5.6585 2.8943Z" fill="#F2F2F2"/>
</svg>
