<svg width="25" height="24" viewBox="0 0 25 24" fill="none" xmlns="http://www.w3.org/2000/svg">
<path d="M21.0933 21.395H4.15007C3.26159 21.395 2.53882 20.6722 2.53882 19.7838V16.7437C2.53882 15.876 2.93178 15.0731 3.61703 14.5409L3.91985 14.3058C3.97842 14.2604 4.02376 14.2003 4.05156 14.1317L5.56915 10.3754C5.97021 9.38244 6.9213 8.74091 7.99223 8.74091H17.2503C18.3212 8.74091 19.2723 9.38244 19.6734 10.3754L21.191 14.1314C21.2188 14.2 21.2641 14.2602 21.3227 14.3055L21.6255 14.5406C22.311 15.0728 22.7042 15.8757 22.7042 16.7434V19.7835C22.7045 20.6722 21.9817 21.395 21.0933 21.395ZM7.9925 9.82074C7.36393 9.82074 6.80579 10.1972 6.57018 10.7799L5.05258 14.536C4.9538 14.7811 4.79079 14.9964 4.58189 15.1586L4.27907 15.3937C3.85912 15.7197 3.61838 16.212 3.61838 16.7437V19.7838C3.61838 20.0769 3.85696 20.3154 4.15007 20.3154H21.0933C21.3864 20.3154 21.625 20.0769 21.625 19.7838V16.7437C21.625 16.2118 21.3839 15.7197 20.964 15.3937L20.6612 15.1586C20.4523 14.9964 20.2895 14.7811 20.1905 14.536L18.6729 10.7802C18.4375 10.1975 17.8791 9.82101 17.2506 9.82101H7.9925V9.82074Z" fill="white"/>
<path d="M6.77608 23.8006H5.25822C4.64206 23.8006 4.14087 23.2994 4.14087 22.6832V20.855C4.14087 20.5567 4.38242 20.3152 4.68065 20.3152H7.35365C7.65188 20.3152 7.89343 20.5567 7.89343 20.855V22.6832C7.89343 23.2994 7.39224 23.8006 6.77608 23.8006ZM5.22043 21.3947V22.6832C5.22043 22.704 5.23744 22.721 5.25822 22.721H6.77608C6.79686 22.721 6.81387 22.704 6.81387 22.6832V21.3947H5.22043Z" fill="white"/>
<path d="M19.9834 23.8006H18.4655C17.8493 23.8006 17.3481 23.2994 17.3481 22.6832V20.855C17.3481 20.5567 17.5897 20.3152 17.8879 20.3152H20.5609C20.8592 20.3152 21.1007 20.5567 21.1007 20.855V22.6832C21.1007 23.2994 20.5995 23.8006 19.9834 23.8006ZM18.4277 21.3947V22.6832C18.4277 22.704 18.4447 22.721 18.4655 22.721H19.9834C20.0041 22.721 20.0211 22.704 20.0211 22.6832V21.3947H18.4277Z" fill="white"/>
<path d="M20.8322 14.0338H4.41309V15.1133H20.8322V14.0338Z" fill="white"/>
<path d="M7.62638 17.474H5.48804V18.5536H7.62638V17.474Z" fill="white"/>
<path d="M19.756 17.474H17.6177V18.5536H19.756V17.474Z" fill="white"/>
<path d="M15.3317 17.474H9.91064V18.5536H15.3317V17.474Z" fill="white"/>
<path d="M24.1993 9.27582C24.1203 9.27582 24.0412 9.25855 23.9675 9.22346L12.621 3.827L1.27455 9.22346C1.10721 9.30308 0.911005 9.2912 0.754468 9.19242C0.597931 9.09364 0.50293 8.92119 0.50293 8.73604V6.076C0.50293 5.86764 0.622761 5.67791 0.810875 5.58857L12.3892 0.0817231C12.536 0.0118214 12.7063 0.0118214 12.8529 0.0817231L24.4312 5.58857C24.6193 5.67791 24.7391 5.86764 24.7391 6.076V8.73604C24.7391 8.92119 24.6441 9.09337 24.4876 9.19242C24.3999 9.24775 24.2997 9.27582 24.1993 9.27582ZM12.621 2.68941C12.7004 2.68941 12.7795 2.70695 12.8529 2.74177L23.6596 7.88157V6.41687L12.621 1.16695L1.58249 6.41687V7.88157L12.3892 2.74177C12.4626 2.70695 12.5417 2.68941 12.621 2.68941Z" fill="white"/>
</svg>
