<svg width="23" height="24" viewBox="0 0 23 24" fill="none" xmlns="http://www.w3.org/2000/svg">
<path d="M11.4401 0C17.4822 0 22.38 4.89779 22.38 10.9399C22.38 16.982 17.4822 21.8798 11.4401 21.8798C5.39804 21.8798 0.500244 16.982 0.500244 10.9399C0.500244 4.89779 5.39804 0 11.4401 0ZM11.4401 2.18798C9.11899 2.18798 6.8929 3.11005 5.2516 4.75136C3.6103 6.39266 2.68822 8.61874 2.68822 10.9399C2.68822 13.2611 3.6103 15.4871 5.2516 17.1284C6.8929 18.7697 9.11899 19.6918 11.4401 19.6918C13.7613 19.6918 15.9874 18.7697 17.6287 17.1284C19.27 15.4871 20.1921 13.2611 20.1921 10.9399C20.1921 8.61874 19.27 6.39266 17.6287 4.75136C15.9874 3.11005 13.7613 2.18798 11.4401 2.18798ZM11.4401 4.37596C11.7081 4.37599 11.9667 4.47437 12.167 4.65243C12.3672 4.83048 12.4951 5.07584 12.5265 5.34195L12.5341 5.46995V10.487L15.4956 13.4484C15.6918 13.6453 15.8057 13.9095 15.8142 14.1873C15.8226 14.4651 15.7251 14.7357 15.5412 14.9442C15.3574 15.1527 15.1011 15.2834 14.8244 15.3097C14.5477 15.3361 14.2714 15.2561 14.0515 15.0861L13.9487 14.9953L10.6667 11.7133C10.4967 11.5432 10.3875 11.3217 10.356 11.0832L10.3462 10.9399V5.46995C10.3462 5.1798 10.4614 4.90154 10.6666 4.69638C10.8717 4.49122 11.15 4.37596 11.4401 4.37596Z" fill="white"/>
</svg>
