<svg width="27" height="25" viewBox="0 0 27 25" fill="none" xmlns="http://www.w3.org/2000/svg">
<path d="M24.7071 7.00764L24.2303 6.87141C24.5509 5.83369 23.9859 4.65974 22.8761 4.34321L7.90722 0.0761266C7.72693 0.0240401 7.54663 0 7.37033 0C6.5089 0 5.71558 0.576958 5.46717 1.46243L3.41176 8.86672C3.11527 9.9365 3.72829 11.0463 4.78203 11.3468L11.1005 13.1498L10.3553 16.4313C10.2391 16.4153 10.1189 16.4032 9.99469 16.4032C8.74061 16.4032 7.68285 17.2526 7.34229 18.4146H6.04012V16.3992C6.04012 15.2934 5.14263 14.3959 4.0368 14.3959H2.50626C1.40042 14.3959 0.50293 15.2934 0.50293 16.3992V22.0366C0.50293 23.1424 1.40042 24.0399 2.50626 24.0399H4.0368C5.14263 24.0399 6.04012 23.1424 6.04012 22.0366V20.0212H7.34229C7.68285 21.1832 8.74061 22.0326 9.99469 22.0326C11.5252 22.0326 12.7633 20.7745 12.7633 19.2199C12.7633 18.3865 12.4067 17.6413 11.8418 17.1284L12.6471 13.5906L17.0704 14.8527C17.2467 14.9047 17.427 14.9288 17.6033 14.9288C18.2163 14.9288 18.8053 14.6363 19.1819 14.1235L22.4714 15.061C22.6517 15.1131 22.828 15.1371 23.0083 15.1371C23.8697 15.1371 24.663 14.5602 24.9115 13.6747L26.0734 9.49176C26.3699 8.42198 25.7569 7.31214 24.7031 7.01164L24.7071 7.00764ZM4.44147 22.0366C4.44147 22.257 4.26117 22.4373 4.0408 22.4373H2.51026C2.2899 22.4373 2.1096 22.257 2.1096 22.0366V16.3992C2.1096 16.1789 2.2899 15.9986 2.51026 15.9986H4.0408C4.26117 15.9986 4.44147 16.1789 4.44147 16.3992V22.0366ZM9.9987 20.4299C9.35763 20.4299 8.83276 19.889 8.83276 19.2199C8.83276 18.5508 9.35763 18.0099 9.9987 18.0099C10.6398 18.0099 11.1646 18.5508 11.1646 19.2199C11.1646 19.889 10.6398 20.4299 9.9987 20.4299ZM17.6033 13.3261C17.5713 13.3261 17.5392 13.3221 17.5072 13.3141L5.22277 9.81229C5.01843 9.7562 4.89823 9.51981 4.95833 9.30345L7.01374 1.89915C7.06983 1.69882 7.23811 1.61067 7.37033 1.61067C7.40239 1.61067 7.43444 1.61468 7.46649 1.62269L22.4354 5.88978C22.5916 5.93385 22.6597 6.05005 22.6918 6.13819C22.7198 6.21833 22.7479 6.37458 22.6397 6.53084L17.9038 13.1699C17.8317 13.27 17.7235 13.3261 17.6073 13.3261H17.6033ZM24.5308 9.06305L23.3689 13.246C23.3128 13.4463 23.1445 13.5345 23.0123 13.5345C22.9803 13.5345 22.9482 13.5305 22.9161 13.5225L20.1756 12.7412L23.3489 8.28976L24.2664 8.5502C24.4707 8.60629 24.5909 8.84268 24.5308 9.05904V9.06305Z" fill="white"/>
</svg>
