<svg width="25" height="25" viewBox="0 0 25 25" fill="none" xmlns="http://www.w3.org/2000/svg">
<path d="M20.2572 5.13158L19.5213 4.39564C19.3133 4.18765 18.9293 4.21966 18.6893 4.5076L16.1291 7.05157C14.977 6.55562 13.7132 6.31562 12.3851 6.31562C8.43298 6.33156 5.0092 8.63553 3.36108 11.9477C3.26506 12.1557 3.26506 12.4117 3.36108 12.5876C4.12902 14.1557 5.28109 15.4517 6.72109 16.4276L4.6251 18.5556C4.3851 18.7956 4.35309 19.1796 4.51313 19.3876L5.24908 20.1235C5.45707 20.3315 5.84106 20.2995 6.08106 20.0116L20.129 5.96369C20.433 5.72383 20.465 5.33987 20.257 5.13185L20.2572 5.13158ZM13.2331 9.96347C12.9611 9.89945 12.6731 9.81949 12.4011 9.81949C11.0411 9.81949 9.95318 10.9075 9.95318 12.2674C9.95318 12.5394 10.0172 12.8274 10.0971 13.0994L9.02503 14.1554C8.70508 13.5955 8.52909 12.9714 8.52909 12.2675C8.52909 10.1395 10.2411 8.42746 12.3691 8.42746C13.0732 8.42746 13.6971 8.60344 14.2571 8.9234L13.2331 9.96347Z" fill="#4D4D4D"/>
<path d="M21.4097 11.9477C20.8497 10.8276 20.1136 9.8197 19.2017 9.00366L16.2257 11.9477V12.2676C16.2257 14.3956 14.5137 16.1076 12.3857 16.1076H12.0657L10.1777 17.9956C10.8818 18.1396 11.6177 18.2356 12.3377 18.2356C16.2899 18.2356 19.7136 15.9316 21.3618 12.6035C21.5057 12.3794 21.5057 12.1555 21.4097 11.9475L21.4097 11.9477Z" fill="#4D4D4D"/>
</svg>
