<svg width="39" height="39" viewBox="0 0 39 39" fill="none" xmlns="http://www.w3.org/2000/svg">
<path d="M35.75 19.25C35.75 28.427 28.3103 35.875 19.125 35.875C9.93969 35.875 2.5 28.427 2.5 19.25C2.5 10.0647 9.93969 2.625 19.125 2.625C28.3103 2.625 35.75 10.0647 35.75 19.25Z" fill="#333333"/>
<path d="M26.9175 15.0431C26.8268 15.0961 24.6672 16.2129 24.6672 18.6893C24.7689 21.5135 27.3925 22.5039 27.4375 22.5039C27.3925 22.5568 27.0414 23.8531 26.0014 25.2119C25.1761 26.3824 24.26 27.5625 22.8689 27.5625C21.5457 27.5625 21.0707 26.7824 19.5439 26.7824C17.9043 26.7824 17.4403 27.5625 16.185 27.5625C14.7939 27.5625 13.81 26.3192 12.9396 25.1597C11.8089 23.6421 10.8479 21.2606 10.8139 18.9739C10.7911 17.7621 11.0404 16.571 11.6732 15.5593C12.5664 14.1469 14.1611 13.1881 15.9025 13.1565C17.2368 13.1146 18.4243 14.0101 19.2386 14.0101C20.0189 14.0101 21.4779 13.1565 23.1286 13.1565C23.8411 13.1572 25.7411 13.3572 26.9175 15.0431ZM19.1257 12.9145C18.8882 11.808 19.5439 10.7014 20.1546 9.99554C20.935 9.1419 22.1675 8.5625 23.2303 8.5625C23.2982 9.66907 22.8682 10.7543 22.0996 11.5447C21.41 12.3984 20.2225 13.041 19.1257 12.9145Z" fill="white"/>
</svg>
