<svg width="37" height="37" viewBox="0 0 37 37" fill="none" xmlns="http://www.w3.org/2000/svg">
<path d="M33.8758 18.6012C33.8758 17.3062 33.7686 16.3612 33.5365 15.3813H18.4473V21.2262H27.3043C27.1258 22.6787 26.1615 24.8662 24.0186 26.3362L23.9886 26.5318L28.7596 30.1539L29.0901 30.1863C32.1258 27.4387 33.8758 23.3962 33.8758 18.6012Z" fill="#4285F4"/>
<path d="M18.447 34.0023C22.7862 34.0023 26.429 32.6022 29.0898 30.1873L24.0183 26.3371C22.6612 27.2647 20.8398 27.9122 18.447 27.9122C14.197 27.9122 10.5899 25.1647 9.30408 21.3672L9.11561 21.3829L4.15472 25.1454L4.08984 25.3222C6.73266 30.4672 12.1612 34.0023 18.447 34.0023Z" fill="#34A853"/>
<path d="M9.30545 21.3632C8.96617 20.3833 8.76982 19.3332 8.76982 18.2482C8.76982 17.1632 8.96617 16.1132 9.2876 15.1332L9.27861 14.9245L4.25554 11.1016L4.0912 11.1782C3.00196 13.3132 2.37695 15.7107 2.37695 18.2482C2.37695 20.7857 3.00196 23.1832 4.0912 25.3182L9.30545 21.3632Z" fill="#FBBC05"/>
<path d="M18.4471 8.58996C21.4649 8.58996 23.5005 9.86745 24.6613 10.935L29.197 6.595C26.4114 4.05751 22.7863 2.5 18.4471 2.5C12.1613 2.5 6.73268 6.03497 4.08984 11.1799L9.28626 15.135C10.59 11.3375 14.1971 8.58996 18.4471 8.58996Z" fill="#EB4335"/>
</svg>
