<svg width="21" height="21" viewBox="0 0 21 21" fill="none" xmlns="http://www.w3.org/2000/svg">
<path d="M11.0001 3.53126C9.55617 3.53126 8.17135 4.09563 7.15032 5.10022C6.12929 6.1048 5.55568 7.46731 5.55568 8.888C5.55568 11.0781 6.94168 13.191 8.46301 14.8279C9.2409 15.6617 10.0897 16.4287 11.0001 17.1205C11.136 17.018 11.2954 16.893 11.4785 16.7456C12.2094 16.155 12.8974 15.5147 13.5372 14.8294C15.0586 13.191 16.4446 11.0789 16.4446 8.888C16.4446 7.46731 15.871 6.1048 14.8499 5.10022C13.8289 4.09563 12.4441 3.53126 11.0001 3.53126ZM11.0001 19L10.5591 18.7016L10.5568 18.7L10.5521 18.6962L10.5366 18.6855L10.4782 18.6449L10.2682 18.4942C9.20413 17.7073 8.21558 16.8262 7.31501 15.8617C5.72523 14.1491 4.00012 11.6704 4.00012 8.88724C4.00012 7.06063 4.73762 5.30883 6.05037 4.01723C7.36313 2.72562 9.14361 2 11.0001 2C12.8566 2 14.6371 2.72562 15.9499 4.01723C17.2626 5.30883 18.0001 7.06063 18.0001 8.88724C18.0001 11.6704 16.275 14.1499 14.6852 15.8602C13.7849 16.8246 12.7966 17.7058 11.7328 18.4926C11.6442 18.5578 11.5547 18.6218 11.4645 18.6847L11.4481 18.6954L11.4435 18.6993L11.4419 18.7L11.0001 19ZM11.0001 7.35751C10.5876 7.35751 10.1919 7.51875 9.90018 7.80578C9.60846 8.0928 9.44457 8.48209 9.44457 8.888C9.44457 9.29392 9.60846 9.6832 9.90018 9.97023C10.1919 10.2573 10.5876 10.4185 11.0001 10.4185C11.4127 10.4185 11.8083 10.2573 12.1001 9.97023C12.3918 9.6832 12.5557 9.29392 12.5557 8.888C12.5557 8.48209 12.3918 8.0928 12.1001 7.80578C11.8083 7.51875 11.4127 7.35751 11.0001 7.35751ZM7.88901 8.888C7.88901 8.07618 8.21679 7.2976 8.80023 6.72355C9.38368 6.14951 10.175 5.82701 11.0001 5.82701C11.8252 5.82701 12.6166 6.14951 13.2 6.72355C13.7835 7.2976 14.1112 8.07618 14.1112 8.888C14.1112 9.69983 13.7835 10.4784 13.2 11.0525C12.6166 11.6265 11.8252 11.949 11.0001 11.949C10.175 11.949 9.38368 11.6265 8.80023 11.0525C8.21679 10.4784 7.88901 9.69983 7.88901 8.888Z" fill="#0D0D0D"/>
</svg>
