<svg width="86" height="86" viewBox="0 0 86 86" fill="none" xmlns="http://www.w3.org/2000/svg">
<path fill-rule="evenodd" clip-rule="evenodd" d="M22.9867 34.4867H10.857C8.29542 34.4867 6.22937 32.4016 6.22937 29.859V17.7293C6.22937 15.1677 8.31445 13.1017 10.857 13.1017H22.9867C25.5483 13.1017 27.6144 15.1868 27.6144 17.7293V29.859C27.6334 32.4016 25.5483 34.4867 22.9867 34.4867ZM10.857 14.9698C9.34748 14.9698 8.11626 16.2011 8.11626 17.7106V29.8403C8.11626 31.3498 9.34748 32.5811 10.857 32.5811H22.9867C24.4963 32.5811 25.7275 31.3498 25.7275 29.8403V17.7106C25.7275 16.2011 24.4963 14.9698 22.9867 14.9698H10.857Z" fill="white"/>
<path fill-rule="evenodd" clip-rule="evenodd" d="M16.9113 72.5029C16.3967 72.5029 15.9584 72.0874 15.9584 71.5499V33.5301C15.9584 33.0155 16.3739 32.5771 16.9113 32.5771C17.4488 32.5771 17.8643 32.9926 17.8643 33.5301V71.5499C17.8643 72.0874 17.4259 72.5029 16.9113 72.5029Z" fill="white"/>
<path fill-rule="evenodd" clip-rule="evenodd" d="M78.8353 72.5032H7.16452C6.64992 72.5032 6.21155 72.0877 6.21155 71.5503C6.21155 71.0128 6.62704 70.5973 7.16452 70.5973H78.8353C79.3499 70.5973 79.7882 71.0128 79.7882 71.5503C79.7882 72.0877 79.3499 72.5032 78.8353 72.5032Z" fill="white"/>
<path fill-rule="evenodd" clip-rule="evenodd" d="M36.0923 67.9357H30.0963C28.3085 67.9357 26.879 66.4871 26.879 64.7184V60.3691C25.7088 59.1988 25.1713 57.4301 25.1713 56.0807V51.3769C25.1713 49.2728 25.6287 47.2257 26.5017 45.3617L23.7228 43.9323C22.5106 43.3186 21.7559 42.0874 21.7559 40.738C21.7559 39.7659 22.1332 38.8511 22.827 38.1764C23.5017 37.5017 24.3938 37.1433 25.3276 37.1433L30.2107 36.8079L32.9704 31.2312C34.2818 28.5514 36.9614 26.9047 39.9385 26.9047H61.2207C64.1978 26.9047 66.9576 28.6505 68.2498 31.3531L70.8685 36.8537L75.5724 37.09C77.5393 37.1091 79.1442 38.7177 79.1442 40.6846V41.1611C79.1442 42.6706 78.1912 44.0391 76.7617 44.5575L75.115 45.1522C76.2281 47.2182 76.8037 49.5397 76.8037 51.8839V55.6767C76.8037 58.2574 75.4924 59.3095 74.082 60.4226V63.9752C74.082 65.7629 72.6334 67.1925 70.8647 67.1925H65.307C63.5193 67.1925 62.0898 65.7439 62.0898 63.9752V59.9651C62.0898 59.4505 62.5052 59.0121 63.0427 59.0121C63.5802 59.0121 63.9957 59.4276 63.9957 59.9651V63.9752C63.9957 64.7109 64.5904 65.3056 65.3261 65.3056H70.8838C71.6195 65.3056 72.2141 64.7109 72.2141 63.9752V59.9651C72.2141 59.6868 72.3514 59.4085 72.5725 59.2294C72.6906 59.1303 72.7897 59.0502 72.9079 58.9702C74.2573 57.899 74.932 57.3616 74.932 55.6729V51.8801C74.932 49.5587 74.2763 47.2753 73.0451 45.3084L72.9651 45.1902C72.7859 44.9539 72.7478 44.6337 72.8278 44.3554C72.9079 44.0771 73.1252 43.8408 73.4034 43.7417L76.1442 42.7697C76.8189 42.5333 77.2763 41.8777 77.2763 41.1611V40.6846C77.2763 39.7316 76.5025 38.9769 75.5686 38.9769H75.5305L70.2282 38.6986C69.8927 38.6796 69.5725 38.4813 69.4353 38.1611L66.5764 32.146C65.6044 30.0989 63.5193 28.7725 61.255 28.7725H39.9543C37.6901 28.7725 35.666 30.0227 34.6748 32.0469L31.6787 38.1002C31.5415 38.3975 31.2441 38.5957 30.9049 38.6148L25.4462 38.9921H25.3662C24.9087 38.9731 24.4742 39.1522 24.154 39.4877C23.8185 39.8041 23.6394 40.2424 23.6394 40.7189C23.6394 41.3555 23.9977 41.9501 24.5733 42.2474L28.1869 44.1153C28.4042 44.2335 28.5834 44.4317 28.6634 44.6718C28.7435 44.912 28.7015 45.1864 28.5834 45.4075C27.5923 47.2144 27.0548 49.2805 27.0548 51.3846V56.0884C27.0548 57.2778 27.6304 58.589 28.4042 59.2256C28.6215 59.4047 28.7625 59.683 28.7625 59.9613V64.7261C28.7625 65.4618 29.3572 66.0565 30.0929 66.0565H36.0889C36.8246 66.0565 37.4193 65.4618 37.4193 64.7261V59.9613C37.4193 59.4467 37.8348 59.0083 38.3723 59.0083C38.9098 59.0083 39.3252 59.4238 39.3252 59.9613V64.7261C39.3062 66.4948 37.8577 67.9434 36.089 67.9434L36.0923 67.9357Z" fill="white"/>
<path fill-rule="evenodd" clip-rule="evenodd" d="M73.1363 60.8913H27.8133C27.2987 60.8913 26.8604 60.4758 26.8604 59.9383C26.8604 59.4008 27.2758 58.9854 27.8133 58.9854H73.1363C73.6509 58.9854 74.0893 59.4008 74.0893 59.9383C74.0893 60.4758 73.6509 60.8913 73.1363 60.8913Z" fill="white"/>
<path fill-rule="evenodd" clip-rule="evenodd" d="M62.6539 43.2996H38.174C37.9948 43.2996 37.8156 43.2386 37.6784 43.1623L30.333 38.4966C29.8946 38.2184 29.7574 37.6428 30.0356 37.1853C30.3139 36.7508 30.8895 36.6097 31.347 36.888L38.4562 41.3936H62.3985L69.4275 36.9452C69.8621 36.6669 70.4415 36.7851 70.7389 37.2425C71.0172 37.677 70.899 38.2755 70.4416 38.5538L63.1951 43.1586C63.016 43.2387 62.8406 43.2959 62.6615 43.2959L62.6539 43.2996Z" fill="white"/>
<path fill-rule="evenodd" clip-rule="evenodd" d="M31.9218 53.8817C31.8608 53.8817 31.7846 53.8817 31.7236 53.8626L25.9067 52.5933C25.3921 52.4751 25.0719 51.9795 25.1939 51.4611C25.3121 50.9465 25.8076 50.6263 26.3261 50.7483L31.1291 51.8003L31.5255 48.564L26.7607 47.6301C26.2461 47.531 25.9259 47.0355 26.025 46.5171C26.1241 46.0025 26.6196 45.6823 27.138 45.7814L32.7567 46.8944C33.2332 46.9935 33.5686 47.451 33.5115 47.9275L32.8749 53.0697C32.8368 53.3289 32.6957 53.5652 32.4785 53.7253C32.3184 53.8244 32.1201 53.8817 31.9218 53.8817Z" fill="white"/>
<path fill-rule="evenodd" clip-rule="evenodd" d="M69.8431 53.8818C69.6449 53.8818 69.4657 53.8208 69.3056 53.7026C69.0883 53.5425 68.9473 53.3062 68.9092 53.047L68.2535 47.9048C68.1925 47.4092 68.5127 46.9518 69.0083 46.8527L74.627 45.7397C75.1416 45.6406 75.641 45.976 75.74 46.4754C75.8391 46.99 75.5037 47.4894 75.0043 47.5884L70.2585 48.5223L70.674 51.7586L75.679 50.6684C76.1936 50.5502 76.693 50.8857 76.8112 51.3812C76.9293 51.8768 76.5939 52.3952 76.0984 52.5134L70.1023 53.8438C69.9841 53.8857 69.9231 53.8857 69.8431 53.8857V53.8818Z" fill="white"/>
<path fill-rule="evenodd" clip-rule="evenodd" d="M13.7164 30.0186C13.2018 30.0186 12.7634 29.6031 12.7634 29.0656V18.4836C12.7634 17.969 13.1789 17.5306 13.7164 17.5306C14.2539 17.5306 14.6694 17.9461 14.6694 18.4836V29.0656C14.6503 29.6031 14.231 30.0186 13.7164 30.0186Z" fill="white"/>
<path fill-rule="evenodd" clip-rule="evenodd" d="M16.9337 25.8906H13.7164C13.2018 25.8906 12.7634 25.4751 12.7634 24.9376V18.4841C12.7634 17.9695 13.1789 17.5311 13.7164 17.5311H16.9337C19.2169 17.5311 21.0848 19.399 21.0848 21.6823C21.0848 24.0265 19.2169 25.8906 16.9337 25.8906ZM14.6504 24.0037H16.9146C18.1649 24.0037 19.1789 22.9707 19.1789 21.7204C19.1789 20.4702 18.1649 19.4562 16.9146 19.4562H14.6504V24.0037Z" fill="white"/>
<path fill-rule="evenodd" clip-rule="evenodd" d="M58.6244 52.0744H42.1073C41.5927 52.0744 41.1543 51.6589 41.1543 51.1214C41.1543 50.584 41.5698 50.1685 42.1073 50.1685H58.6244C59.139 50.1685 59.5773 50.584 59.5773 51.1214C59.5773 51.6589 59.1618 52.0744 58.6244 52.0744Z" fill="white"/>
</svg>
