<svg width="86" height="86" viewBox="0 0 86 86" fill="none" xmlns="http://www.w3.org/2000/svg">
<path d="M39.6685 70.4474L36.6876 61.8882C35.7227 58.9567 33.7437 56.4086 31.1338 54.7017L23.7741 49.9396C22.8711 49.3335 21.8073 49.0861 20.6694 49.2098C19.9643 49.2964 19.3087 49.5685 18.7398 49.9519L12.8891 34.6014C12.4686 33.5624 11.5904 32.8326 10.4648 32.5976C9.22784 32.3379 7.94144 32.7337 6.96425 33.6861C6.09836 34.6138 5.7768 35.6157 5.91288 37.1372C7.39719 47.3912 8.9062 55.3692 10.2669 60.2061C11.1821 63.4469 13.0252 66.4031 15.5857 68.7288L24.0213 76.3978C24.8376 77.1399 25.4561 78.0676 25.8148 79.0819C26.0004 79.589 26.4704 79.9106 26.9776 79.9106C27.1136 79.9106 27.2497 79.8859 27.3858 79.8364C28.029 79.6138 28.3629 78.9087 28.1403 78.2531C27.6455 76.8554 26.792 75.569 25.6788 74.5547L17.2431 66.8858C15.0167 64.8696 13.4211 62.3215 12.6418 59.5261C11.3307 54.8629 9.79682 46.7855 8.36206 36.8529C8.28785 35.9623 8.47338 35.6902 8.72077 35.4181C9.11659 35.0223 9.61135 34.9604 9.94534 35.0223C10.1556 35.0718 10.4401 35.1954 10.5638 35.5047L16.9216 52.2034C16.3031 53.8979 16.7608 55.8275 18.1337 57.0645L25.1594 63.5459C25.6666 64.0036 26.4458 63.9789 26.9035 63.4717C27.3611 62.9646 27.3364 62.1853 26.8293 61.7277L19.7912 55.2462C19.0985 54.6154 18.913 53.6135 19.3583 52.7847C19.3954 52.7105 19.482 52.5621 19.6922 52.3394C20.0138 51.9807 20.4715 51.7457 20.9292 51.6838C21.3002 51.6467 21.8321 51.6715 22.364 52.0302L29.7361 56.8047C31.8759 58.2024 33.4963 60.2928 34.3003 62.7048L37.2936 71.2892C37.7018 72.452 37.9863 73.6765 38.1224 74.9258L38.5553 78.8222C38.6295 79.453 39.1614 79.923 39.7799 79.923H39.9159C40.5963 79.8488 41.0787 79.2303 41.0044 78.5624L40.5715 74.666C40.4107 73.2312 40.0891 71.8211 39.6191 70.4853L39.6685 70.4474Z" fill="white"/>
<path d="M78.9902 33.6483C78.0625 32.733 76.7637 32.3496 75.5268 32.597C74.4136 32.832 73.523 33.5618 73.1024 34.6255L67.2642 49.9507C66.6828 49.5673 66.0272 49.2952 65.3222 49.2086C64.209 49.0849 63.1452 49.3323 62.267 49.926L54.8949 54.7005C52.285 56.395 50.3059 58.9555 49.3535 61.8623L46.3602 70.4467C45.8901 71.795 45.5685 73.1928 45.4077 74.6275L44.9748 78.5238C44.9006 79.2042 45.383 79.8103 46.0633 79.8845H46.1994C46.8178 79.8845 47.3621 79.4145 47.4239 78.7837L47.8569 74.8873C47.9929 73.6381 48.2774 72.4135 48.6856 71.2507L51.679 62.6417C52.4706 60.2421 54.091 58.1517 56.2308 56.7663L63.6277 51.9794C64.1348 51.6331 64.6791 51.6083 65.0254 51.6454C65.5202 51.7073 65.9655 51.9423 66.3118 52.3257C66.4479 52.4742 66.5592 52.6226 66.6334 52.771C67.0663 53.575 66.8808 54.5769 66.1757 55.2202L59.15 61.7017C58.6429 62.1593 58.6181 62.9509 59.0758 63.4457C59.5458 63.9528 60.3251 63.9776 60.8198 63.5199L67.8456 57.0508C69.2309 55.8015 69.6886 53.8596 69.0701 52.1773L75.4156 35.504C75.5516 35.17 75.8361 35.0463 76.0464 34.9969C76.3804 34.935 76.8751 34.9969 77.2338 35.3556C77.5307 35.6648 77.7039 35.9369 77.642 36.7533C76.1948 46.7603 74.6734 54.8373 73.3499 59.5C72.5582 62.2954 70.9626 64.8435 68.7362 66.8597L60.3005 74.5287C59.1873 75.5429 58.3338 76.817 57.839 78.2271C57.6164 78.8703 57.9503 79.5753 58.5935 79.8104C58.7296 79.8598 58.8657 79.8846 59.0017 79.8846C59.5089 79.8846 59.9913 79.563 60.1645 79.0558C60.5232 78.0416 61.1417 77.1014 61.958 76.3717L70.3936 68.7028C72.9664 66.3774 74.8094 63.4211 75.7248 60.1801C77.0855 55.3437 78.5945 47.3651 80.0911 37.0375C80.2148 35.5903 79.8932 34.5883 79.0026 33.6236L78.9902 33.6483Z" fill="white"/>
<path d="M43.0081 10.7776C33.7555 10.7776 26.2231 18.3104 26.2231 27.5626C26.2231 36.8147 33.756 44.3475 43.0081 44.3475C52.2602 44.3475 59.7931 36.8147 59.7931 27.5626C59.7931 18.3104 52.2602 10.7776 43.0081 10.7776ZM43.0081 41.8864C35.1165 41.8864 28.697 35.4667 28.697 27.5752C28.697 19.6838 35.1167 13.2641 43.0081 13.2641C50.8996 13.2641 57.3192 19.6838 57.3192 27.5752C57.3192 35.4667 50.8996 41.8864 43.0081 41.8864Z" fill="white"/>
<path d="M46.4846 27.2662C45.693 26.6601 44.6911 26.3385 43.6892 26.3385H42.3162C41.8462 26.3385 41.3761 26.19 40.968 25.8808C40.8937 25.8313 40.8195 25.7695 40.77 25.7076C40.3619 25.2995 40.1392 24.7428 40.1392 24.1615C40.1392 23.4688 40.4608 22.838 41.0174 22.4175C41.3885 22.133 41.8462 21.9845 42.3162 21.9845H46.5836C47.2639 21.9845 47.8205 21.4279 47.8205 20.7476C47.8205 20.0673 47.2639 19.5107 46.5836 19.5107H44.2334V18.014C44.2334 17.3337 43.6768 16.7771 42.9964 16.7771C42.3161 16.7771 41.7595 17.3337 41.7595 18.014V19.5602C40.9432 19.6591 40.1639 19.956 39.5207 20.4507C38.3333 21.3413 37.6653 22.702 37.6653 24.1739C37.6653 25.4231 38.1477 26.5859 39.0259 27.4641C39.1867 27.6248 39.3599 27.7733 39.5207 27.8846C40.3123 28.4907 41.3142 28.8247 42.3161 28.8247H43.6891C44.1592 28.8247 44.6292 28.9731 45.025 29.2823C45.0992 29.3318 45.1734 29.406 45.2353 29.4555C45.6435 29.8637 45.8661 30.4203 45.8661 31.0016C45.8661 31.6943 45.5445 32.3252 44.9879 32.7457C44.6168 33.0302 44.1591 33.1786 43.6891 33.1786H39.4218C38.7414 33.1786 38.1848 33.7352 38.1848 34.4155C38.1848 35.0958 38.7414 35.6525 39.4218 35.6525H41.772V37.1491C41.772 37.8294 42.3286 38.386 43.0089 38.386C43.6892 38.386 44.2458 37.8294 44.2458 37.1491V35.603C45.0621 35.504 45.8414 35.2072 46.4846 34.7124C47.6721 33.8218 48.34 32.4612 48.34 30.9893C48.34 29.74 47.8576 28.5772 46.9794 27.6867C46.8186 27.5259 46.6454 27.3775 46.4846 27.2662Z" fill="white"/>
<path d="M65.273 27.946C65.273 15.6631 55.2786 5.6814 43.0083 5.6814C30.738 5.6814 20.7437 15.6631 20.7437 27.946C20.7437 40.229 30.7253 50.2107 43.0083 50.2107C55.2913 50.2107 65.273 40.229 65.273 27.946ZM43.0083 47.7368C32.0988 47.7368 23.2175 38.8555 23.2175 27.946C23.2175 17.0366 32.0988 8.15525 43.0083 8.15525C53.9178 8.15525 62.7991 17.0366 62.7991 27.946C62.7991 38.8555 53.9178 47.7368 43.0083 47.7368Z" fill="white"/>
</svg>
