<svg width="86" height="86" viewBox="0 0 86 86" fill="none" xmlns="http://www.w3.org/2000/svg">
<path d="M39.6685 70.4472L36.6876 61.8881C35.7227 58.9566 33.7437 56.4085 31.1338 54.7016L23.7741 49.9395C22.8711 49.3334 21.8073 49.086 20.6694 49.2097C19.9643 49.2963 19.3087 49.5684 18.7398 49.9518L12.8891 34.6013C12.4686 33.5623 11.5904 32.8325 10.4648 32.5975C9.22784 32.3378 7.94144 32.7336 6.96425 33.686C6.09836 34.6137 5.7768 35.6156 5.91288 37.137C7.39719 47.3911 8.9062 55.3691 10.2669 60.206C11.1821 63.4468 13.0252 66.403 15.5857 68.7287L24.0213 76.3976C24.8376 77.1398 25.4561 78.0675 25.8148 79.0817C26.0004 79.5889 26.4704 79.9105 26.9776 79.9105C27.1136 79.9105 27.2497 79.8858 27.3858 79.8363C28.029 79.6136 28.3629 78.9086 28.1403 78.253C27.6455 76.8553 26.792 75.5689 25.6788 74.5546L17.2431 66.8857C15.0167 64.8695 13.4211 62.3214 12.6418 59.5259C11.3307 54.8627 9.79682 46.7854 8.36206 36.8528C8.28785 35.9622 8.47338 35.6901 8.72077 35.418C9.11659 35.0222 9.61135 34.9603 9.94534 35.0222C10.1556 35.0716 10.4401 35.1953 10.5638 35.5046L16.9216 52.2032C16.3031 53.8978 16.7608 55.8274 18.1337 57.0643L25.1594 63.5458C25.6666 64.0035 26.4458 63.9788 26.9035 63.4716C27.3611 62.9645 27.3364 62.1852 26.8293 61.7276L19.7912 55.2461C19.0985 54.6153 18.913 53.6133 19.3583 52.7846C19.3954 52.7104 19.482 52.5619 19.6922 52.3393C20.0138 51.9806 20.4715 51.7456 20.9292 51.6837C21.3002 51.6466 21.8321 51.6714 22.364 52.0301L29.7361 56.8046C31.8759 58.2023 33.4963 60.2926 34.3003 62.7047L37.2936 71.2891C37.7018 72.4519 37.9863 73.6764 38.1224 74.9257L38.5553 78.8221C38.6295 79.4529 39.1614 79.9229 39.7799 79.9229H39.9159C40.5963 79.8487 41.0787 79.2302 41.0044 78.5622L40.5715 74.6659C40.4107 73.2311 40.0891 71.8209 39.6191 70.4851L39.6685 70.4472Z" fill="white"/>
<path d="M78.9902 33.6483C78.0625 32.733 76.7637 32.3496 75.5268 32.597C74.4136 32.832 73.523 33.5618 73.1024 34.6255L67.2642 49.9507C66.6828 49.5673 66.0272 49.2952 65.3222 49.2086C64.209 49.0849 63.1452 49.3323 62.267 49.926L54.8949 54.7005C52.285 56.395 50.3059 58.9555 49.3535 61.8623L46.3602 70.4467C45.8901 71.795 45.5685 73.1928 45.4077 74.6275L44.9748 78.5238C44.9006 79.2042 45.383 79.8103 46.0633 79.8845H46.1994C46.8178 79.8845 47.3621 79.4145 47.4239 78.7837L47.8569 74.8873C47.9929 73.6381 48.2774 72.4135 48.6856 71.2507L51.679 62.6417C52.4706 60.2421 54.091 58.1517 56.2308 56.7663L63.6277 51.9794C64.1348 51.6331 64.6791 51.6083 65.0254 51.6454C65.5202 51.7073 65.9655 51.9423 66.3118 52.3257C66.4479 52.4742 66.5592 52.6226 66.6334 52.771C67.0663 53.575 66.8808 54.5769 66.1757 55.2202L59.15 61.7017C58.6429 62.1593 58.6181 62.9509 59.0758 63.4457C59.5458 63.9528 60.3251 63.9776 60.8198 63.5199L67.8456 57.0508C69.2309 55.8015 69.6886 53.8596 69.0701 52.1773L75.4156 35.504C75.5516 35.17 75.8361 35.0463 76.0464 34.9969C76.3804 34.935 76.8751 34.9969 77.2338 35.3556C77.5307 35.6648 77.7039 35.9369 77.642 36.7533C76.1948 46.7603 74.6734 54.8373 73.3499 59.5C72.5582 62.2954 70.9626 64.8435 68.7362 66.8597L60.3005 74.5287C59.1873 75.5429 58.3338 76.817 57.839 78.2271C57.6164 78.8703 57.9503 79.5753 58.5935 79.8104C58.7296 79.8598 58.8657 79.8846 59.0017 79.8846C59.5089 79.8846 59.9913 79.563 60.1645 79.0558C60.5232 78.0416 61.1417 77.1014 61.958 76.3717L70.3936 68.7028C72.9664 66.3774 74.8094 63.4211 75.7248 60.1801C77.0855 55.3437 78.5945 47.3651 80.0911 37.0375C80.2148 35.5903 79.8932 34.5883 79.0026 33.6236L78.9902 33.6483Z" fill="white"/>
<path d="M43.0082 10.7776C33.7556 10.7776 26.2233 18.3104 26.2233 27.5626C26.2233 36.8147 33.7561 44.3475 43.0082 44.3475C52.2604 44.3475 59.7932 36.8147 59.7932 27.5626C59.7932 18.3104 52.2604 10.7776 43.0082 10.7776ZM43.0082 41.8864C35.1166 41.8864 28.6971 35.4667 28.6971 27.5752C28.6971 19.6838 35.1168 13.2641 43.0082 13.2641C50.8997 13.2641 57.3194 19.6838 57.3194 27.5752C57.3194 35.4667 50.8997 41.8864 43.0082 41.8864Z" fill="white"/>
<path d="M46.4845 27.2662C45.6928 26.6601 44.691 26.3385 43.6891 26.3385H42.3161C41.846 26.3385 41.376 26.19 40.9678 25.8808C40.8936 25.8313 40.8194 25.7695 40.7699 25.7076C40.3617 25.2995 40.1391 24.7428 40.1391 24.1615C40.1391 23.4688 40.4607 22.838 41.0173 22.4175C41.3884 22.133 41.8461 21.9845 42.3161 21.9845H46.5835C47.2638 21.9845 47.8204 21.4279 47.8204 20.7476C47.8204 20.0673 47.2638 19.5107 46.5835 19.5107H44.2333V18.014C44.2333 17.3337 43.6766 16.7771 42.9963 16.7771C42.316 16.7771 41.7594 17.3337 41.7594 18.014V19.5602C40.9431 19.6591 40.1638 19.956 39.5206 20.4507C38.3331 21.3413 37.6652 22.702 37.6652 24.1739C37.6652 25.4231 38.1476 26.5859 39.0258 27.4641C39.1866 27.6248 39.3598 27.7733 39.5206 27.8846C40.3122 28.4907 41.3141 28.8247 42.316 28.8247H43.689C44.159 28.8247 44.6291 28.9731 45.0249 29.2823C45.0991 29.3318 45.1733 29.406 45.2352 29.4555C45.6433 29.8637 45.866 30.4203 45.866 31.0016C45.866 31.6943 45.5444 32.3252 44.9878 32.7457C44.6167 33.0302 44.159 33.1786 43.689 33.1786H39.4216C38.7413 33.1786 38.1847 33.7352 38.1847 34.4155C38.1847 35.0958 38.7413 35.6525 39.4216 35.6525H41.7718V37.1491C41.7718 37.8294 42.3284 38.386 43.0088 38.386C43.6891 38.386 44.2457 37.8294 44.2457 37.1491V35.603C45.062 35.504 45.8413 35.2072 46.4845 34.7124C47.6719 33.8218 48.3399 32.4612 48.3399 30.9893C48.3399 29.74 47.8575 28.5772 46.9793 27.6867C46.8185 27.5259 46.6453 27.3775 46.4845 27.2662Z" fill="white"/>
<path d="M65.273 27.946C65.273 15.6631 55.2786 5.6814 43.0083 5.6814C30.738 5.6814 20.7437 15.6631 20.7437 27.946C20.7437 40.229 30.7253 50.2107 43.0083 50.2107C55.2913 50.2107 65.273 40.229 65.273 27.946ZM43.0083 47.7368C32.0988 47.7368 23.2175 38.8555 23.2175 27.946C23.2175 17.0366 32.0988 8.15525 43.0083 8.15525C53.9178 8.15525 62.7991 17.0366 62.7991 27.946C62.7991 38.8555 53.9178 47.7368 43.0083 47.7368Z" fill="white"/>
</svg>
