<svg width="86" height="86" viewBox="0 0 86 86" fill="none" xmlns="http://www.w3.org/2000/svg">
<path d="M70.5057 17.5918C60.6438 15.2388 51.0388 9.97984 46.191 7.04862C44.2398 5.84642 41.7774 5.84642 39.8262 7.04862C32.1853 11.6743 23.9242 15.1877 15.2935 17.4898C12.918 18.1295 11.2722 20.2896 11.2818 22.7487V37.8953C11.6547 51.229 17.7108 67.0446 37.2291 78.0255C40.8229 79.935 45.1304 79.935 48.7244 78.0255C60.9077 71.7412 69.8857 60.625 73.4761 47.3975C75.3404 41.5599 74.5047 29.0876 74.6718 22.8647C74.6783 20.351 72.9521 18.1683 70.5058 17.593L70.5057 17.5918ZM72.1001 37.8948C71.74 50.4311 65.9539 65.3727 47.5155 75.7489C44.6771 77.2532 41.2761 77.2532 38.4379 75.7489C20.012 65.3851 14.2129 50.4311 13.8533 37.8948V22.7482C13.8501 21.4528 14.7212 20.318 15.9749 19.9837C24.8467 17.6178 33.3367 14.0047 41.1898 9.24712C41.7266 8.91281 42.3438 8.73602 42.9771 8.7328C43.6296 8.72958 44.2693 8.90959 44.8287 9.24712C49.8433 12.2559 59.6921 17.6565 69.9786 20.0866C71.2612 20.3952 72.1644 21.5427 72.1644 22.8639L72.1001 37.8948Z" fill="white"/>
<path d="M65.1178 22.3235C58.2677 20.4688 51.7265 17.6336 45.6896 13.9018C44.0406 12.8924 41.964 12.8924 40.315 13.9018C34.201 17.5921 27.5952 20.3983 20.6934 22.2338C18.6651 22.7707 17.2539 24.6093 17.2603 26.7084V38.8596C17.6074 49.7122 22.4035 62.3513 38.2191 71.2874C41.1797 72.856 44.722 72.856 47.6826 71.2874C57.5255 66.2116 64.7836 57.2369 67.6893 46.5489C69.2709 41.8557 68.4865 31.8261 68.6665 26.8121C68.673 24.6712 67.2008 22.81 65.1177 22.3247L65.1178 22.3235ZM66.1208 38.8592C65.7993 48.9144 61.2476 60.7175 46.5255 69.0116C44.3236 70.1817 41.6813 70.1817 39.4793 69.0116C24.731 60.6928 20.1795 48.9012 19.8322 38.8592V26.708C19.8611 25.8047 20.4848 25.0268 21.3623 24.805C28.5178 22.8796 35.3618 19.9479 41.6908 16.1002C42.0766 15.8527 42.5201 15.7209 42.9766 15.7145C43.4331 15.7273 43.8767 15.8591 44.2624 16.1002C50.5596 19.9705 57.3838 22.9021 64.5267 24.805C65.4685 25.0075 66.1371 25.8465 66.1211 26.8109L66.1208 38.8592Z" fill="white"/>
<path d="M51.5525 41.4179V32.3272C51.5525 27.5922 47.7111 23.7507 42.976 23.7507C38.241 23.7507 34.3996 27.5921 34.3996 32.3272V41.4179C31.9341 41.8358 30.1275 43.9702 30.1179 46.4711V56.7575C30.1179 58.1204 30.6612 59.4288 31.6255 60.3932C32.5898 61.3575 33.8981 61.9007 35.2611 61.9007H50.6908C52.0537 61.9007 53.3621 61.3575 54.3264 60.3932C55.2908 59.4288 55.834 58.1205 55.834 56.7575V46.4711C55.8244 43.9702 54.018 41.8358 51.5525 41.4179ZM42.976 26.31C46.2934 26.3164 48.9808 29.0101 48.9808 32.3276V41.3286H36.9712V32.3276C36.9712 29.0102 39.6586 26.3164 42.976 26.31ZM53.2625 56.7323C53.2625 57.4138 52.9925 58.0696 52.5103 58.5517C52.0281 59.0339 51.3724 59.3039 50.6909 59.3039H35.2613C33.8404 59.3039 32.6896 58.1532 32.6896 56.7323V46.4459C32.6896 45.025 33.8404 43.8743 35.2613 43.8743H50.6909C51.3724 43.8743 52.0281 44.1443 52.5103 44.6265C52.9925 45.1086 53.2625 45.7644 53.2625 46.4458V56.7323Z" fill="white"/>
<path d="M42.9758 45.8418C41.0278 45.8707 39.3788 47.2915 39.0638 49.2139C38.7455 51.1361 39.8545 53.0102 41.69 53.6595V56.0768C41.69 56.7872 42.2654 57.3626 42.9758 57.3626C43.6862 57.3626 44.2616 56.7872 44.2616 56.0768V53.6595C46.0971 53.0102 47.2061 51.1361 46.8879 49.2139C46.5728 47.2916 44.9238 45.8708 42.9758 45.8418ZM42.9758 51.3193C42.1722 51.3193 41.5229 50.67 41.5229 49.8663C41.5229 49.0627 42.1722 48.4134 42.9758 48.4134C43.7794 48.4134 44.4287 49.0627 44.4287 49.8663C44.4287 50.67 43.7794 51.3193 42.9758 51.3193Z" fill="white"/>
</svg>
